<svg width="543" height="136" fill="none" xmlns="http://www.w3.org/2000/svg"><g clip-path="url(#clip0_181_469)"><path d="M167.732 101.745v19.171h-3.093v-19.171H160v-3.227h12.371v3.227h-4.639zm31.614 13.667h-8.591l-2.234 5.504h-3.436l9.965-23.726 9.622 23.726h-3.264l-2.062-5.504zm-1.375-3.037l-2.921-7.593-3.092 7.593h6.013zm32.302-3.037h8.419v.759c0 1.708-.172 3.227-.516 4.555a10.641 10.641 0 01-1.718 3.417c-1.89 2.278-4.295 3.416-7.216 3.416-2.749 0-5.327-1.138-7.217-3.416-2.061-2.278-3.092-4.935-3.092-8.162 0-3.227 1.031-6.074 3.092-8.352 2.062-2.277 4.639-3.416 7.56-3.416 1.547 0 3.093.38 4.468 1.139 1.374.759 2.577 1.898 3.951 3.416l-2.233 2.278c-1.718-2.468-3.608-3.606-6.014-3.606-2.062 0-3.952.759-5.326 2.467-1.375 1.519-2.234 3.606-2.234 6.074s.859 4.556 2.406 6.074c1.546 1.518 3.092 2.278 4.982 2.278 1.547 0 2.921-.57 4.124-1.709 1.203-1.138 1.89-2.467 2.062-3.986h-4.983v-3.226h-.515zm37.971-10.819v19.17h6.014v3.227h-8.935V98.519h2.921zm25.259 0v22.397h-3.093V98.519h3.093zm18.385 22.397V97l14.776 17.083V98.519h3.093v23.726l-14.777-17.083v15.754h-3.092zm47.249-19.171h-8.076v5.315h7.904v3.227h-7.904v7.402h8.076v3.227h-11.168V98.519h11.168v3.226zm29.38 5.505h8.763v-8.731h3.093v22.397h-3.093v-10.439h-8.763v10.439h-3.092V98.519h3.092v8.731zm41.236-5.505h-8.075v5.315h7.903v3.227h-7.903v7.402h8.075v3.227h-11.168V98.519h11.168v3.226zm24.226 9.681l6.357 9.49h-3.78l-5.841-9.111h-.516v9.111h-3.093V98.519h3.609c2.749 0 4.639.569 5.841 1.708 1.375 1.328 1.89 2.847 1.89 4.935 0 1.518-.343 3.037-1.202 4.176-.859.949-1.89 1.708-3.265 2.088zm-3.78-2.658h1.031c2.921 0 4.295-1.139 4.295-3.606 0-2.278-1.374-3.417-4.295-3.417h-1.031v7.023zM488 101.745h-8.075v5.315h7.903v3.227h-7.903v7.402H488v3.227h-11.168V98.519H488v3.226z" fill="#6AB058"/><path d="M166.396 71.339C162.132 65.022 160 56.847 160 47.186c0-9.661 2.132-17.836 6.396-24.153 4.264-6.317 9.238-9.662 15.398-9.662 4.737 0 8.764 1.858 12.554 5.946 3.554 4.087 6.159 9.29 7.581 16.35h-12.318c-1.659-4.831-4.264-7.432-7.817-7.432-3.554 0-6.396 1.858-8.291 5.202-2.132 3.344-3.08 8.175-3.08 13.749 0 5.945.948 10.404 3.08 13.748 2.131 3.345 4.737 5.203 8.291 5.203 3.553 0 6.158-2.602 7.817-7.432h12.318c-1.422 7.06-4.027 12.262-7.581 16.35-3.553 4.087-7.817 5.945-12.554 5.945-6.16 0-11.371-3.344-15.398-9.661zm58.504 0c-4.264-6.317-6.396-14.492-6.396-24.525 0-9.661 2.132-17.836 6.396-24.153 4.264-6.317 9.238-9.661 15.397-9.661 6.159 0 11.134 3.344 15.398 9.661 4.264 6.317 6.159 14.492 6.159 24.153 0 9.661-2.132 17.836-6.159 24.525-4.264 6.317-9.239 9.661-15.398 9.661-5.922 0-11.133-3.344-15.397-9.661zm23.452-10.404c2.131-3.345 3.079-8.175 3.079-13.75 0-5.945-.948-10.404-3.079-13.748-2.132-3.344-4.738-5.202-8.055-5.202-3.316 0-6.159 1.858-8.054 5.202-2.132 3.344-3.079 8.175-3.079 13.749 0 5.945.947 10.404 3.079 13.748 2.132 3.345 4.738 5.203 8.054 5.203 3.317 0 6.159-1.858 8.055-5.203zm77.454-46.82v66.142H315.62v-37.53l-9.713 37.53h-7.58l-9.712-37.53v37.53h-10.186V14.115h11.844l12.081 45.705 12.081-45.705h11.371zm48.553 20.437c0 4.459-.947 8.918-3.079 13.005-1.184 2.23-2.606 3.716-4.738 5.203-2.132 1.486-4.738 1.858-7.58 1.858h-6.396v25.639H342.38V14.115h16.582c4.974 0 8.765 1.858 11.37 5.945 2.606 4.088 4.027 8.547 4.027 14.492zm-22.03 7.803h6.396c1.658 0 2.843-.743 3.79-2.23.948-1.486 1.421-3.344 1.421-5.573 0-2.23-.473-4.46-1.421-5.945-.947-1.487-2.132-2.23-3.553-2.23h-6.396v15.978h-.237zm69.4 37.902l-2.369-11.148h-15.161l-2.369 11.148h-10.896l14.687-66.514h12.554l14.687 66.514h-11.133zm-14.924-23.41h9.949l-4.975-23.781-4.974 23.781zm70.111-43.104h10.186v66.514h-10.186l-17.292-41.99v41.99h-10.186V13.743h10.186l17.292 41.99v-41.99zm51.635 66.514h-10.186v-21.18l-14.687-44.962h11.607l8.054 30.098 8.054-30.098h11.608l-14.687 44.962v21.18h.237z" fill="#435966"/><path d="M58.342 20.474v96.14h-38.04c1.872-9.298 6.405-17.804 13.304-24.728a48.277 48.277 0 0124.638-13.253c-.099-.297-.099-.594-.099-.99H20.597l-.492.495A68.713 68.713 0 005.519 99.8C1.971 108.206.197 117.108.197 126.307V136h77.461V20.276h38.139c-1.872 9.298-6.406 17.804-13.304 24.728-4.928 4.945-10.644 8.605-16.95 11.077v2.176h31.043a67.921 67.921 0 0014.092-21.166C134.226 28.684 136 19.78 136 10.583V.89H58.342v19.584z" fill="#6AB058"/><path d="M58.342 78.633v-.89h-.296c0 .296.098.593.098.989.099-.1.099-.1.198-.1z" fill="#6AB058"/><path d="M58.046 77.644h.296v-57.17l-.591-.593C51.542 13.649 44.249 8.704 36.168 5.34 27.791 1.781 18.922 0 9.757 0H0v77.743h58.046v-.1zm-38.73-19.387v-37.98c9.362 1.879 17.838 6.428 24.736 13.352 6.8 6.825 11.432 15.43 13.304 24.727h-38.04v-.099zm66.127 19.387h30.255v37.981c-9.362-1.88-17.837-6.429-24.736-13.353-2.07-2.077-3.843-4.253-5.519-6.528v27.299c4.14 3.066 8.673 5.539 13.403 7.616 8.377 3.561 17.247 5.341 26.412 5.341h9.756V58.257H85.443v19.387z" fill="#435966"/><path d="M77.46 136h.198V20.276h-.197V136z" fill="#fff"/></g><defs><clipPath id="clip0_181_469"><path fill="#fff" d="M0 0h543v136H0z"/></clipPath></defs></svg>