<?xml version="1.0" standalone="no"?>
<!DOCTYPE svg PUBLIC "-//W3C//DTD SVG 1.1//EN" "http://www.w3.org/Graphics/SVG/1.1/DTD/svg11.dtd" >
<svg xmlns="http://www.w3.org/2000/svg">
<metadata>Generated by IcoMoon</metadata>
<defs>
<font id="RZF-POS" horiz-adv-x="1024">
<font-face units-per-em="1024" ascent="960" descent="-64" />
<missing-glyph horiz-adv-x="1024" />
<glyph unicode="&#x20;" horiz-adv-x="512" d="" />
<glyph unicode="&#xe900;" glyph-name="minus" d="M757.333 426.667h-512c-8.453 0.111-16.528 3.516-22.505 9.493s-9.384 14.054-9.495 22.507c0.111 8.452 3.517 16.529 9.495 22.507s14.053 9.382 22.505 9.493h512c8.452-0.111 16.529-3.516 22.507-9.493s9.382-14.054 9.493-22.507c-0.111-8.452-3.516-16.529-9.493-22.507s-14.054-9.382-22.507-9.493z" />
<glyph unicode="&#xe901;" glyph-name="user" horiz-adv-x="884" d="M834.56-40.727c-9.221 0.121-18.032 3.835-24.553 10.356s-10.235 15.332-10.356 24.553c0 160.582-163.84 290.909-364.916 290.909s-364.916-130.327-364.916-290.909c-0.121-9.221-3.837-18.032-10.358-24.553s-15.33-10.235-24.551-10.356c-9.221 0.121-18.030 3.835-24.551 10.356s-10.237 15.332-10.358 24.553c0 198.749 195.025 360.727 434.735 360.727s434.735-161.978 434.735-360.727c-0.121-9.221-3.835-18.032-10.356-24.553s-15.332-10.235-24.553-10.356zM434.735 424.727c-52.933 0-104.678 15.695-148.691 45.103-44.012 29.41-78.316 71.209-98.573 120.114s-25.557 102.717-15.23 154.633c10.327 51.916 35.817 99.604 73.247 137.034s85.118 62.92 137.034 73.246c51.916 10.327 105.731 5.027 154.632-15.23 48.905-20.257 90.703-54.56 120.115-98.573 29.407-44.013 45.103-95.757 45.103-148.691-0.121-70.944-28.36-138.947-78.527-189.112-50.162-50.164-118.165-78.403-189.11-78.525zM434.735 890.182c-39.125 0-77.371-11.602-109.902-33.339s-57.886-52.631-72.859-88.778c-14.972-36.146-18.89-75.921-11.257-114.294s26.473-73.62 54.139-101.286c27.665-27.665 62.913-46.505 101.286-54.138s78.147-3.715 114.294 11.257 67.039 40.327 88.776 72.858c21.737 32.531 33.341 70.777 33.341 109.902-0.121 52.427-21.006 102.671-58.075 139.742-37.073 37.072-87.315 57.953-139.743 58.076z" />
<glyph unicode="&#xe902;" glyph-name="eye-off" d="M978.381-42.667c-4.203-0.017-8.371 0.802-12.254 2.415-3.883 1.609-7.403 3.981-10.359 6.972l-184.32 182.613c-77.794-58.671-172.224-91.093-269.653-92.587-315.306 2.133-491.093 346.453-498.346 361.387-2.428 4.527-3.698 9.583-3.698 14.72s1.27 10.193 3.698 14.72c52.667 99.153 125.305 186.318 213.333 256.001l-199.68 201.813c-5.652 6.066-8.73 14.090-8.583 22.38s3.505 16.2 9.368 22.063c5.863 5.863 13.773 9.221 22.063 9.368s16.313-2.931 22.38-8.583l938.666-938.668c3.021-2.94 5.419-6.455 7.057-10.342 1.638-3.883 2.483-8.055 2.483-12.271s-0.845-8.388-2.483-12.271c-1.638-3.883-4.036-7.398-7.057-10.342-2.91-3.051-6.421-5.461-10.317-7.078-3.891-1.617-8.081-2.402-12.297-2.308zM68.728 432.213c35.413-62.72 191.573-309.333 432.64-309.333 80.499 1.267 158.677 27.179 224 74.24l-116.907 116.48c-13.316-12.813-28.766-23.206-45.653-30.72-19.652-8.636-40.828-13.269-62.293-13.636-21.461-0.367-42.782 3.546-62.72 11.503-29.984 12.1-55.586 33.020-73.415 59.989-17.829 26.974-27.044 58.726-26.425 91.051-0.001 21.508 4.657 42.761 13.653 62.293 8.026 17.015 19.005 32.474 32.427 45.655l-119.467 118.613c-79.737-61.531-146.33-138.425-195.84-226.135zM426.701 494.507c-16.134-17.276-25.26-39.936-25.6-63.573-0.509-13.001 1.821-25.958 6.827-37.973 4.849-11.895 12.027-22.707 21.111-31.791 9.088-9.088 19.895-16.265 31.795-21.116 12.164-4.476 25.015-6.784 37.973-6.827 12.796 0.145 25.429 2.906 37.12 8.107 9.762 4.258 18.714 10.18 26.453 17.493l-135.68 135.68zM877.261 264.107c-6.020 0.132-11.887 1.958-16.917 5.274-5.030 3.311-9.020 7.979-11.516 13.461s-3.396 11.558-2.594 17.527c0.806 5.969 3.277 11.593 7.134 16.218 29.952 36.117 56.653 74.807 79.787 115.627-35.413 62.72-191.573 309.335-432.64 309.335-27.439 0.066-54.788-3.085-81.493-9.387-8.137-1.594-16.575 0.032-23.536 4.535s-11.903 11.534-13.784 19.61c-1.88 8.075-0.553 16.565 3.702 23.681s11.107 12.303 19.111 14.467c31.701 7.686 64.234 11.412 96.853 11.093 314.88 0 490.667-344.321 497.92-358.828 2.428-4.527 3.699-9.583 3.699-14.72s-1.271-10.193-3.699-14.72c-27.2-49.865-59.516-96.768-96.427-139.947-2.735-3.951-6.362-7.211-10.586-9.506-4.224-2.3-8.926-3.571-13.734-3.721h-1.28z" />
<glyph unicode="&#xe903;" glyph-name="receipt" d="M142.565 874.019c43.151 45.329 110.996 55.863 197.263 55.863h344.796c86.255 0 154.128-10.529 197.227-55.885 42.345-44.559 52.019-113.897 51.79-203.678 0 0.012 0-0.011 0 0v-505.082c0-32.491-4.451-61.265-14.113-84.655-9.698-23.492-25.739-43.821-49.748-54.007-24.257-10.288-50.236-7.511-73.933 2.53-23.365 9.903-46.447 27.522-68.686 50.845l-0.060 0.066c-12.27 12.939-26.226 17.571-38.45 16.914-12.237-0.651-25.626-6.764-36.407-20.89l-46.156-60.627c-23.958-31.106-57.68-49.297-94.088-49.297s-70.13 18.191-94.088 49.297l-0.117 0.151-46.040 60.476c-10.782 14.125-24.171 20.239-36.407 20.89-12.222 0.657-26.18-3.976-38.448-16.914l-0.058-0.060c-22.138-23.233-45.173-40.791-68.525-50.664-23.68-10.011-49.647-12.77-73.901-2.5-24.018 10.162-40.114 30.467-49.868 54.007-9.706 23.426-14.191 52.272-14.191 84.884v504.685c0 89.802 9.82 159.119 52.212 203.651zM192.523 828.088c-22.143-23.26-33.759-66.892-33.759-157.719v-504.685c0-27.22 3.839-46.731 9.14-59.525 5.254-12.68 10.85-16.468 13.57-17.619 2.484-1.054 8.299-2.355 19.808 2.512 11.837 5.006 27.397 15.733 45.623 34.858l24.967-22.974-25.025 22.914c25.13 26.504 58.376 40.026 92.218 38.213 33.827-1.807 65.362-18.781 87.418-47.682l45.972-60.386c0.017-0.024 0.035-0.048 0.052-0.072 12.971-16.8 27.572-22.576 39.491-22.576s26.521 5.777 39.493 22.582c0.017 0.018 0.034 0.042 0.050 0.066l45.948 60.356c22.056 28.901 53.615 45.905 87.442 47.712 33.821 1.813 67.053-11.692 92.177-38.171 18.348-19.239 33.967-30.021 45.827-35.051 11.535-4.885 17.312-3.566 19.733-2.536 2.674 1.132 8.24 4.891 13.475 17.565 5.277 12.782 9.090 32.244 9.090 59.368v505.214c0.229 90.831-11.306 134.431-33.382 157.657-21.317 22.435-61.079 34.541-147.225 34.541h-344.796c-86.13 0-125.921-12.1-147.305-34.563zM288.588 492.826c0 24.754 20.419 44.821 45.608 44.821h0.41c25.189 0 45.608-20.067 45.608-44.821s-20.419-44.821-45.608-44.821h-0.41c-25.189 0-45.608 20.067-45.608 44.821zM427.794 492.855c0 18.566 15.315 33.616 34.206 33.616h250.843c18.89 0 34.208-15.050 34.208-33.616s-15.318-33.616-34.208-33.616h-250.843c-18.891 0-34.206 15.050-34.206 33.616zM288.588 672.12c0 24.754 20.419 44.821 45.608 44.821h0.41c25.189 0 45.608-20.067 45.608-44.821s-20.419-44.821-45.608-44.821h-0.41c-25.189 0-45.608 20.067-45.608 44.821zM427.794 672.149c0 18.566 15.315 33.616 34.206 33.616h250.843c18.89 0 34.208-15.050 34.208-33.616s-15.318-33.616-34.208-33.616h-250.843c-18.891 0-34.206 15.050-34.206 33.616z" />
<glyph unicode="&#xe904;" glyph-name="receipt-edit" d="M141.185 871.797c42.011 47.132 108.062 58.085 192.049 58.085h335.682c83.988 0 150.036-10.954 192.051-58.085 41.267-46.302 50.833-118.377 50.833-211.75v-198.531c0-19.304-14.914-34.953-33.304-34.953s-33.304 15.649-33.304 34.953v198.531c0 94.44-11.306 139.807-32.864 163.992-20.817 23.356-59.555 35.938-143.411 35.938h-335.682c-83.854 0-122.593-12.581-143.411-35.938-21.558-24.186-32.867-69.552-32.867-163.992v-524.758c0-28.172 3.734-48.393 8.892-61.669 5.114-13.161 10.563-17.107 13.218-18.312 2.411-1.090 8.060-2.44 19.243 2.626 11.509 5.216 26.655 16.408 44.399 36.4 0.256 0.289 0.517 0.572 0.782 0.855l0.138 0.145c50.5 55.814 130.091 51.248 174.003-10.421l44.837-62.904c11.018-15.456 8.011-37.358-6.716-48.923s-35.597-8.409-46.615 7.048l-44.857 62.928c-19.040 26.738-50.192 28.817-72.53 3.939l-0.65-0.699-0.055-0.060c-21.432-24.064-43.726-42.243-66.338-52.489-23.077-10.457-48.371-13.324-71.99-2.644-23.376 10.565-39.046 31.666-48.543 56.109-9.453 24.329-13.823 54.266-13.823 88.070v524.758c0 93.373 9.561 165.448 50.832 211.75zM290.176 661.93c0 19.304 14.91 34.953 33.302 34.953h355.219c18.393 0 33.302-15.649 33.302-34.953s-14.908-34.953-33.302-34.953h-355.219c-18.392 0-33.302 15.649-33.302 34.953zM334.559 475.459c0 19.304 14.909 34.953 33.302 34.953h266.415c18.392 0 33.302-15.649 33.302-34.953s-14.909-34.953-33.302-34.953h-266.415c-18.392 0-33.302 15.649-33.302 34.953zM817.845 360.964c29.449 3.175 56.549-10.707 80.679-36.036 24.269-25.474 37.659-53.977 34.738-84.956-2.747-29.136-19.299-51.736-34.738-67.933l-156.847-164.623c-6.505-7.156-14.517-12.36-21.088-15.812-6.921-3.632-15.336-6.933-23.799-8.337l-0.554-0.090-59.874-8.837c-0.014-0.006 0.013 0 0 0-19.604-2.927-39.851 2.482-54.455 17.806-14.605 15.33-19.764 36.539-16.973 57.115-0.002-0.012 0.001 0.018 0 0l8.51 63.464c1.358 9.029 4.568 17.806 8.012 24.949 3.445 7.15 8.341 15.179 14.659 21.811 0 0 0 0 0 0l157.182 164.978c15.438 16.203 36.924 33.522 64.548 36.5zM824.651 291.424c-4.789-0.518-12.607-4.168-24.257-16.39l-157.124-164.918c-0.023-0.030-0.27-0.325-0.685-0.958-0.526-0.801-1.123-1.849-1.699-3.042s-1.026-2.325-1.333-3.247c-0.192-0.578-0.283-0.94-0.316-1.078l-7.721-57.573 54.885 8.108c0.142 0.036 0.546 0.139 1.203 0.379 0.948 0.337 2.063 0.825 3.194 1.422 1.141 0.596 2.046 1.175 2.655 1.614 0.139 0.102 0.247 0.187 0.319 0.241 0.157 0.175 0.313 0.343 0.47 0.506l157.19 164.978c11.65 12.228 15.077 20.384 15.547 25.389 0.301 3.156 0.145 12.168-15.547 28.642-15.39 16.149-23.811 16.245-26.781 15.926zM745.189 309.658c17.721 5.168 36.081-5.722 41.002-24.323 10.192-38.52 38.701-68.439 75.403-79.137 17.721-5.168 28.094-24.431 23.173-43.032s-23.281-29.491-41.002-24.323c-59.205 17.263-105.297 65.638-121.748 127.783-4.921 18.601 5.451 37.864 23.173 43.032z" />
<glyph unicode="&#xe905;" glyph-name="eye" d="M501.367 85.333c-314.881 0-490.668 344.32-497.921 358.827-2.319 4.484-3.53 9.459-3.53 14.507s1.21 10.022 3.53 14.507c7.253 14.507 183.040 358.827 497.921 358.827s490.667-344.32 497.92-358.827c2.317-4.484 3.529-9.459 3.529-14.507s-1.212-10.022-3.529-14.507c-7.253-14.507-183.040-358.827-497.92-358.827zM68.3 458.667c35.84-62.72 191.573-309.333 433.068-309.333s397.227 246.613 433.067 309.333c-35.84 62.72-191.573 309.333-433.067 309.333s-397.228-246.613-433.068-309.333zM501.367 298.667c-31.646 0-62.579 9.382-88.892 26.965-26.312 17.579-46.819 42.569-58.929 71.804-12.11 29.239-15.279 61.41-9.105 92.446s21.412 59.546 43.789 81.922c22.377 22.377 50.887 37.615 81.923 43.788s63.206 3.005 92.442-9.105c29.239-12.11 54.225-32.618 71.808-58.929 17.579-26.312 26.965-57.245 26.965-88.891 0-42.436-16.858-83.132-46.865-113.139-30.003-30.003-70.703-46.861-113.135-46.861zM501.367 554.667c-18.987 0-37.547-5.63-53.338-16.179-15.787-10.548-28.090-25.541-35.356-43.085-7.266-17.54-9.167-36.843-5.463-55.467 3.704-18.62 12.847-35.725 26.274-49.152s30.532-22.571 49.152-26.274c18.624-3.703 37.926-1.801 55.467 5.466 17.545 7.266 32.538 19.571 43.085 35.358s16.179 34.347 16.179 53.333c0 25.459-10.116 49.877-28.117 67.883-18.005 18.003-42.423 28.117-67.883 28.117z" />
<glyph unicode="&#xe906;" glyph-name="dashboard" horiz-adv-x="1067" d="M821.312 0h-85.333c-21.623-2.53-43.537-0.132-64.102 7.014s-39.245 18.854-54.639 34.249c-15.394 15.394-27.102 34.074-34.249 54.639-7.142 20.561-9.54 42.479-7.010 64.098v85.333c-2.53 21.623-0.132 43.537 7.010 64.102 7.147 20.565 18.854 39.245 34.249 54.639s34.074 27.102 54.639 34.249c20.565 7.147 42.479 9.54 64.102 7.010h85.333c21.623 2.53 43.537 0.137 64.102-7.010 20.561-7.147 39.241-18.854 54.635-34.249s27.102-34.074 34.249-54.639c7.147-20.565 9.545-42.479 7.014-64.102v-85.333c2.53-21.619 0.132-43.537-7.014-64.098-7.147-20.565-18.854-39.245-34.249-54.639s-34.074-27.102-54.635-34.249c-20.565-7.147-42.479-9.545-64.102-7.014zM735.979 341.333c-67.413 0-96-28.587-96-96v-85.333c0-67.413 28.587-96 96-96h85.333c67.413 0 96 28.587 96 96v85.333c0 67.413-28.587 96-96 96h-85.333zM309.311 0h-85.333c-21.623-2.53-43.537-0.132-64.102 7.014s-39.243 18.854-54.637 34.249c-15.394 15.394-27.103 34.074-34.249 54.639-7.146 20.561-9.544 42.479-7.013 64.098v85.333c-2.531 21.623-0.133 43.537 7.013 64.102s18.855 39.245 34.249 54.639c15.394 15.394 34.073 27.102 54.637 34.249s42.479 9.54 64.102 7.010h85.333c21.623 2.53 43.537 0.137 64.102-7.010s39.243-18.854 54.636-34.249c15.394-15.394 27.102-34.074 34.249-54.639s9.545-42.479 7.014-64.102v-85.333c2.53-21.619 0.132-43.537-7.014-64.098-7.147-20.565-18.854-39.245-34.249-54.639s-34.072-27.102-54.636-34.249c-20.564-7.147-42.479-9.545-64.102-7.014zM223.978 341.333c-67.413 0-96-28.587-96-96v-85.333c0-67.413 28.587-96 96-96h85.333c67.413 0 96 28.587 96 96v85.333c0 67.413-28.587 96-96 96h-85.333zM821.312 512h-85.333c-21.623-2.53-43.537-0.132-64.102 7.014s-39.245 18.854-54.639 34.249c-15.394 15.394-27.102 34.073-34.249 54.637-7.142 20.564-9.54 42.479-7.010 64.102v85.333c-2.53 21.623-0.132 43.537 7.010 64.102 7.147 20.564 18.854 39.244 34.249 54.637s34.074 27.103 54.639 34.249c20.565 7.146 42.479 9.544 64.102 7.013h85.333c21.623 2.531 43.537 0.133 64.102-7.013 20.561-7.146 39.241-18.855 54.635-34.249s27.102-34.073 34.249-54.637c7.147-20.564 9.545-42.479 7.014-64.102v-85.333c2.53-21.623 0.132-43.537-7.014-64.102s-18.854-39.243-34.249-54.637c-15.394-15.394-34.074-27.102-54.635-34.249-20.565-7.147-42.479-9.545-64.102-7.014zM735.979 853.335c-67.413 0-96-28.587-96-96v-85.333c0-67.413 28.587-96 96-96h85.333c67.413 0 96 28.587 96 96v85.333c0 67.413-28.587 96-96 96h-85.333zM309.311 512h-85.333c-21.623-2.53-43.537-0.132-64.102 7.014s-39.243 18.854-54.637 34.249c-15.394 15.394-27.103 34.073-34.249 54.637s-9.544 42.479-7.013 64.102v85.333c-2.531 21.623-0.133 43.537 7.013 64.102s18.855 39.244 34.249 54.637c15.394 15.394 34.073 27.103 54.637 34.249s42.479 9.544 64.102 7.013h85.333c21.623 2.531 43.537 0.133 64.102-7.013s39.243-18.855 54.636-34.249c15.394-15.394 27.102-34.073 34.249-54.637s9.545-42.479 7.014-64.102v-85.333c2.53-21.623 0.132-43.537-7.014-64.102s-18.854-39.243-34.249-54.637c-15.393-15.394-34.072-27.102-54.636-34.249s-42.479-9.545-64.102-7.014zM223.978 853.335c-67.413 0-96-28.587-96-96v-85.333c0-67.413 28.587-96 96-96h85.333c67.413 0 96 28.587 96 96v85.333c0 67.413-28.587 96-96 96h-85.333z" />
<glyph unicode="&#xe907;" glyph-name="shopping-cart" d="M682.667 0c-16.879 0-33.374 5.005-47.407 14.383-14.033 9.374-24.973 22.703-31.433 38.293-6.455 15.595-8.145 32.751-4.855 49.306 3.294 16.55 11.422 31.757 23.356 43.691s27.14 20.062 43.691 23.356c16.555 3.29 33.711 1.6 49.306-4.855 15.59-6.46 28.919-17.399 38.293-31.433 9.378-14.033 14.383-30.528 14.383-47.407 0-22.63-8.99-44.335-24.994-60.339s-37.709-24.994-60.339-24.994zM682.667 106.667c-4.22 0-8.346-1.25-11.853-3.597-3.507-2.342-6.242-5.675-7.855-9.574-1.617-3.895-2.039-8.188-1.216-12.322 0.823-4.139 2.854-7.94 5.837-10.927 2.987-2.982 6.788-5.013 10.927-5.837 4.134-0.823 8.427-0.401 12.322 1.216 3.9 1.613 7.232 4.348 9.574 7.855 2.347 3.507 3.597 7.633 3.597 11.853 0 5.658-2.249 11.085-6.246 15.087-4.002 3.998-9.429 6.246-15.087 6.246zM341.333 0c-16.877 0-33.376 5.005-47.409 14.383-14.033 9.374-24.97 22.703-31.429 38.293-6.458 15.595-8.148 32.751-4.856 49.306 3.293 16.55 11.42 31.757 23.354 43.691s27.139 20.062 43.692 23.356c16.553 3.29 33.711 1.6 49.303-4.855 15.593-6.46 28.92-17.399 38.296-31.433s14.381-30.528 14.381-47.407c0-22.63-8.99-44.335-24.994-60.339s-37.708-24.994-60.34-24.994zM341.333 106.667c-4.219 0-8.344-1.25-11.852-3.597-3.508-2.342-6.243-5.675-7.857-9.574-1.615-3.895-2.037-8.188-1.214-12.322 0.823-4.139 2.855-7.94 5.839-10.927 2.983-2.982 6.784-5.013 10.923-5.837s8.428-0.401 12.326 1.216c3.898 1.613 7.23 4.348 9.574 7.855s3.596 7.633 3.596 11.853c0 5.658-2.248 11.085-6.249 15.087-4 3.998-9.427 6.246-15.085 6.246zM765.44 213.76h-454.4c-20.94-0.013-41.655 4.322-60.838 12.719-19.182 8.401-36.413 20.685-50.607 36.083-14.193 15.394-25.040 33.57-31.855 53.367-6.815 19.802-9.451 40.802-7.74 61.67l35.413 426.667c0.826 6.423 0.18 12.949-1.89 19.084s-5.509 11.72-10.057 16.329c-4.396 4.797-9.734 8.637-15.68 11.279s-12.373 4.032-18.88 4.081h-74.24c-8.169 0.090-16.003 3.26-21.936 8.876s-9.527 13.265-10.064 21.417c0.111 8.453 3.517 16.528 9.495 22.505s14.053 9.384 22.505 9.495h74.24c15.314-0.073 30.45-3.292 44.468-9.457s26.621-15.145 37.025-26.383c11.3-12.219 19.751-26.791 24.747-42.667h533.333c20.907 0.022 41.587-4.31 60.732-12.719 19.14-8.408 36.322-20.71 50.449-36.122s24.892-33.596 31.607-53.395c6.716-19.799 9.233-40.779 7.398-61.605l-23.040-320c-3.43-37.837-20.604-73.101-48.282-99.127-27.678-26.022-63.932-41.003-101.905-42.099zM256 773.547l-33.28-401.067c-1.325-11.968-0.102-24.081 3.59-35.546 3.691-11.46 9.766-22.012 17.827-30.959s17.922-16.085 28.939-20.949c11.016-4.864 22.937-7.339 34.979-7.266h457.387c22.11 0.619 43.234 9.284 59.418 24.363 16.179 15.083 26.304 35.546 28.476 57.557l17.067 237.653h-497.067c-8.487 0-16.626 3.372-22.627 9.373s-9.373 14.141-9.373 22.627c0 8.487 3.372 16.626 9.373 22.627s14.141 9.373 22.627 9.373h501.76v17.92c1.412 12.14 0.201 24.441-3.554 36.071s-9.963 22.319-18.206 31.342c-8.341 8.925-18.458 16.004-29.705 20.78-11.243 4.777-23.36 7.145-35.575 6.953l-532.053-0.853z" />
<glyph unicode="&#xe908;" glyph-name="trash" d="M640.009 0h-275.626c-151.040 0-154.88 82.347-159.573 149.333l-27.733 429.227c-0.29 4.204 0.254 8.425 1.6 12.418s3.467 7.682 6.242 10.854c2.775 3.171 6.149 5.764 9.929 7.628s7.89 2.963 12.096 3.234c8.465 0.471 16.777-2.39 23.157-7.973s10.32-13.442 10.976-21.894l27.733-429.653c4.267-64.853 5.973-89.173 95.573-89.173h275.626c89.173 0 90.88 24.32 95.573 89.173l27.733 429.653c0.273 4.206 1.37 8.316 3.234 12.096s4.459 7.154 7.629 9.929c3.17 2.775 6.861 4.896 10.854 6.242s8.213 1.889 12.416 1.6c4.19-0.269 8.282-1.37 12.041-3.24 3.755-1.869 7.104-4.469 9.843-7.647 2.743-3.178 4.821-6.871 6.118-10.863 1.301-3.991 1.788-8.201 1.438-12.384l-29.44-429.227c-4.267-66.987-10.24-149.333-157.44-149.333zM572.169 234.667h-142.080c-8.486 0-16.625 3.371-22.627 9.374-6.001 5.999-9.373 14.14-9.373 22.626s3.372 16.627 9.373 22.626c6.001 6.003 14.141 9.374 22.627 9.374h142.080c8.486 0 16.627-3.371 22.63-9.374 5.999-5.999 9.37-14.14 9.37-22.626s-3.371-16.627-9.37-22.626c-6.003-6.003-14.144-9.374-22.63-9.374zM608.009 405.333h-213.332c-8.487 0-16.626 3.371-22.627 9.374-6.001 5.999-9.373 14.14-9.373 22.626s3.372 16.627 9.373 22.626c6.001 6.003 14.141 9.374 22.627 9.374h213.332c8.486 0 16.627-3.371 22.63-9.374 5.999-5.999 9.37-14.14 9.37-22.626s-3.371-16.627-9.37-22.626c-6.003-6.003-14.144-9.374-22.63-9.374zM117.343 683.52c-7.577 0.832-14.608 4.34-19.828 9.894s-8.286 12.789-8.646 20.403c-0.36 7.614 2.009 15.106 6.682 21.128s11.341 10.179 18.805 11.721l85.333 8.533c39.253 3.84 79.36 6.827 119.040 8.96l9.387 54.613c8.533 42.24 17.92 98.56 117.332 98.56h111.787c99.413 0 109.227-58.88 115.627-98.133l9.813-55.467c68.693-3.413 137.813-8.533 206.080-15.36 8.486-0.792 16.311-4.923 21.751-11.485 5.444-6.561 8.055-15.015 7.262-23.502-0.789-8.487-4.924-16.311-11.482-21.753-6.562-5.441-15.019-8.053-23.505-7.261-224 25.43-449.988 28.288-674.559 8.533l-87.467-8.533-3.413-0.853zM458.675 768.853c52.907 0 105.813 0 159.147-2.987l-7.253 42.667c-5.973 36.693-7.253 42.667-52.48 42.667h-112.64c-45.226 0-46.079-5.973-52.479-42.667l-6.827-42.667 72.532 2.987z" />
<glyph unicode="&#xe909;" glyph-name="bell" d="M502.178-5.12c-37.547-0.218-74.18 11.597-104.532 33.707-24.812 18.283-41.5 45.538-46.507 75.947-47.945 8.021-95.171 19.866-141.227 35.413-17.030 5.286-32.638 14.366-45.646 26.56-13.008 12.198-23.077 27.187-29.447 43.84-5.927 16.708-7.933 34.56-5.861 52.169 2.071 17.604 8.164 34.5 17.808 49.378l49.067 81.493c11.668 22.033 18.367 46.353 19.627 71.253v123.308c0.037 58.165 17.658 114.96 50.553 162.931s79.523 84.875 133.767 105.869c10.126 18.221 24.94 33.403 42.908 43.973 17.967 10.57 38.434 16.144 59.277 16.144 20.847 0 41.314-5.574 59.281-16.144s32.781-25.752 42.906-43.973c54.942-20.566 102.302-57.396 135.765-105.574 33.468-48.179 51.447-105.417 51.541-164.079v-123.308c1.412-24.819 7.949-49.084 19.2-71.253l48.64-80.64c9.050-15.151 14.588-32.137 16.209-49.707 1.626-17.574-0.704-35.285-6.822-51.84-5.986-16.521-15.671-31.454-28.318-43.657s-27.917-21.35-44.642-26.743c-46.481-15.689-94.131-27.674-142.507-35.84-8.405-33.007-28.13-62.016-55.731-81.975s-61.329-29.602-95.309-27.251zM421.54 95.573c4.163-6.101 9.193-11.563 14.932-16.213 19.191-13.594 42.193-20.762 65.707-20.48 15.407-0.687 30.754 2.236 44.83 8.533s26.483 15.791 36.237 27.733c-53.803-4.766-107.93-4.621-161.705 0.427zM443.298 803.841c-47.108-13.208-88.611-41.449-118.187-80.423s-45.608-86.545-45.651-135.471v-123.308c-1.471-36.48-11.404-72.124-29.013-104.107l-49.067-83.2c-4.574-6.737-7.531-14.438-8.641-22.502-1.11-8.068-0.343-16.282 2.241-24.004 3.094-7.62 7.895-14.43 14.035-19.904s13.453-9.463 21.378-11.669c176.998-59.729 368.707-59.729 545.705 0 7.561 2.556 14.451 6.775 20.16 12.343 5.713 5.572 10.103 12.352 12.847 19.849 2.743 7.492 3.772 15.505 3.004 23.445-0.764 7.945-3.298 15.612-7.424 22.443l-48.64 81.493c-17.28 32.247-27.055 67.981-28.587 104.533v124.588c0.226 46.813-14.161 92.529-41.161 130.772s-65.263 67.105-109.453 82.561h-4.267c-11.921 3.289-24.034 5.853-36.267 7.68-31.066 3.694-62.537 1.961-93.013-5.12z" />
<glyph unicode="&#xe90a;" glyph-name="plus" d="M501.333 170.667c-8.452 0.111-16.529 3.516-22.507 9.493s-9.382 14.054-9.493 22.507v224h-224c-8.487 0-16.626 3.371-22.627 9.374-6.001 5.999-9.373 14.14-9.373 22.626s3.372 16.627 9.373 22.626c6.001 6.003 14.141 9.374 22.627 9.374h224v224c0 8.487 3.371 16.626 9.374 22.627 5.999 6.001 14.14 9.373 22.626 9.373s16.627-3.372 22.626-9.373c6.003-6.001 9.374-14.141 9.374-22.627v-224h224c8.486 0 16.627-3.371 22.626-9.374 6.003-5.999 9.374-14.14 9.374-22.626s-3.371-16.627-9.374-22.626c-5.999-6.003-14.14-9.374-22.626-9.374h-224v-224c-0.111-8.452-3.516-16.529-9.493-22.507s-14.054-9.382-22.507-9.493z" />
<glyph unicode="&#xe90b;" glyph-name="arrow-down" d="M519.714 853.331c8.452-0.111 16.529-3.517 22.507-9.495s9.382-14.053 9.493-22.505v-648.105l204.373 204.373c2.931 3.14 6.464 5.662 10.389 7.411s8.162 2.692 12.459 2.765c4.297 0.077 8.563-0.713 12.548-2.321s7.603-4.006 10.645-7.044c3.038-3.038 5.431-6.66 7.040-10.645 1.613-3.981 2.402-8.252 2.325-12.548s-1.015-8.533-2.765-12.459c-1.749-3.925-4.271-7.458-7.415-10.385l-258.987-258.987c-5.999-5.995-14.131-9.361-22.613-9.361-8.478 0-16.614 3.366-22.613 9.361l-258.986 258.987c-3.144 2.927-5.666 6.46-7.415 10.385s-2.689 8.162-2.765 12.459c-0.076 4.297 0.715 8.567 2.324 12.548 1.609 3.985 4.005 7.607 7.043 10.645s6.659 5.436 10.643 7.044c3.985 1.609 8.253 2.398 12.55 2.321 4.297-0.073 8.534-1.015 12.459-2.765s7.458-4.271 10.388-7.411l204.372-204.373v648.105c0.111 8.453 3.52 16.528 9.498 22.505s14.050 9.384 22.502 9.495z" />
<glyph unicode="&#xe90c;" glyph-name="arrow-left" d="M418.959 164.693c-4.204-0.021-8.37 0.798-12.253 2.411s-7.406 3.985-10.36 6.976l-258.987 258.987c-5.993 5.999-9.359 14.131-9.359 22.613 0 8.478 3.366 16.61 9.359 22.613l258.987 258.985c2.929 3.144 6.462 5.666 10.388 7.415s8.163 2.689 12.46 2.765c4.297 0.076 8.562-0.715 12.547-2.324s7.607-4.005 10.645-7.043c3.038-3.039 5.431-6.659 7.044-10.643 1.609-3.985 2.398-8.253 2.321-12.549-0.073-4.297-1.015-8.534-2.765-12.46s-4.271-7.458-7.415-10.388l-204.372-204.372h648.105c8.491 0 16.627-3.371 22.63-9.374 5.999-6.003 9.37-14.14 9.37-22.626s-3.371-16.627-9.37-22.63c-6.003-5.999-14.14-9.37-22.63-9.37h-648.105l204.372-204.373c5.995-6.003 9.361-14.135 9.361-22.613 0-8.482-3.366-16.614-9.361-22.613-2.953-2.991-6.477-5.363-10.359-6.976s-8.048-2.432-12.252-2.411z" />
<glyph unicode="&#xe90d;" glyph-name="arrow-right" d="M605.043 731.308c4.203 0.020 8.367-0.8 12.254-2.412 3.883-1.612 7.403-3.983 10.359-6.975l258.987-258.988c5.99-5.999 9.357-14.131 9.357-22.613 0-8.478-3.366-16.61-9.357-22.613l-258.987-258.987c-2.931-3.145-6.464-5.666-10.389-7.411-3.925-1.749-8.162-2.692-12.459-2.769-4.297-0.073-8.563 0.717-12.548 2.325s-7.607 4.006-10.645 7.044c-3.038 3.038-5.431 6.656-7.044 10.641-1.609 3.985-2.398 8.256-2.321 12.553 0.073 4.297 1.015 8.533 2.765 12.459s4.271 7.458 7.415 10.385l204.373 204.373h-648.108c-8.487 0-16.626 3.371-22.627 9.374s-9.373 14.14-9.373 22.626c0 8.486 3.372 16.627 9.373 22.63 6.001 5.999 14.141 9.37 22.627 9.37h648.108l-204.373 204.375c-5.995 6-9.361 14.133-9.361 22.613s3.366 16.614 9.361 22.613c2.953 2.991 6.477 5.363 10.359 6.975s8.047 2.432 12.254 2.412z" />
<glyph unicode="&#xe90e;" glyph-name="arrow-up" d="M504.286 42.667c-8.452 0.111-16.529 3.52-22.507 9.498s-9.382 14.050-9.493 22.502v648.109l-204.374-204.375c-2.93-3.14-6.463-5.662-10.388-7.411s-8.163-2.692-12.46-2.765c-4.297-0.077-8.564 0.713-12.549 2.321s-7.604 4.006-10.643 7.044c-3.039 3.038-5.434 6.66-7.044 10.645-1.609 3.981-2.4 8.25-2.324 12.547s1.016 8.534 2.765 12.46c1.749 3.925 4.271 7.458 7.415 10.388l258.988 258.987c5.999 5.993 14.131 9.359 22.613 9.359 8.478 0 16.614-3.366 22.613-9.359l258.987-258.987c3.145-2.929 5.666-6.462 7.415-10.388s2.688-8.163 2.765-12.46c0.073-4.297-0.717-8.566-2.325-12.547-1.609-3.985-4.006-7.607-7.044-10.645s-6.656-5.436-10.641-7.044c-3.985-1.609-8.252-2.398-12.548-2.321-4.297 0.073-8.538 1.015-12.463 2.765s-7.458 4.271-10.385 7.411l-204.373 204.375v-648.109c-0.111-8.452-3.52-16.525-9.498-22.502s-14.050-9.387-22.502-9.498z" />
<glyph unicode="&#xe90f;" glyph-name="chevron-down" d="M497.954 251.733c-15.296-0.017-30.447 2.987-44.578 8.845-14.135 5.858-26.969 14.455-37.768 25.289l-278.187 278.188c-5.652 6.066-8.73 14.089-8.583 22.38s3.505 16.2 9.367 22.063c5.863 5.863 13.773 9.222 22.063 9.368s16.314-2.931 22.38-8.584l278.186-278.188c10.052-9.451 23.326-14.711 37.12-14.711s27.072 5.261 37.12 14.711l278.187 278.188c6.067 5.652 14.089 8.73 22.379 8.584s16.201-3.505 22.063-9.368c5.867-5.863 9.225-13.772 9.37-22.063s-2.931-16.313-8.585-22.38l-278.187-278.188c-10.799-10.833-23.633-19.43-37.764-25.289s-29.282-8.862-44.582-8.845z" />
<glyph unicode="&#xe910;" glyph-name="chevron-left" d="M708.245 771.839c0.017-4.204-0.802-8.37-2.415-12.253s-3.981-7.406-6.972-10.36l-278.188-278.185c-4.877-4.877-8.745-10.662-11.384-17.033-2.639-6.366-3.998-13.193-3.998-20.087s1.359-13.722 3.998-20.092c2.639-6.37 6.508-12.156 11.384-17.028l278.188-278.187c5.649-6.067 8.73-14.093 8.58-22.383-0.145-8.29-3.503-16.196-9.365-22.063-5.862-5.862-13.773-9.22-22.063-9.365s-16.316 2.931-22.379 8.585l-278.188 278.187c-10.862 10.786-19.483 23.616-25.366 37.747s-8.911 29.291-8.911 44.599c0 15.309 3.029 30.464 8.911 44.595 5.883 14.135 14.504 26.965 25.366 37.751l278.188 278.185c5.999 5.993 14.131 9.359 22.613 9.359 8.478 0 16.61-3.366 22.613-9.359 2.991-2.954 5.359-6.476 6.972-10.36s2.432-8.049 2.415-12.253z" />
<glyph unicode="&#xe911;" glyph-name="chevron-right" d="M315.756 124.16c-0.020 4.207 0.8 8.371 2.412 12.254s3.983 7.407 6.974 10.359l278.185 278.187c4.877 4.877 8.747 10.662 11.388 17.033 2.637 6.366 3.998 13.193 3.998 20.087s-1.361 13.722-3.998 20.092c-2.641 6.37-6.511 12.156-11.388 17.028l-278.185 278.188c-5.652 6.066-8.73 14.089-8.583 22.38s3.505 16.2 9.367 22.063c5.863 5.863 13.773 9.222 22.063 9.368s16.314-2.931 22.38-8.584l278.185-278.187c10.863-10.787 19.486-23.617 25.365-37.748 5.884-14.131 8.913-29.291 8.913-44.599s-3.029-30.464-8.913-44.595c-5.879-14.135-14.502-26.965-25.365-37.751l-278.185-278.187c-6-5.99-14.133-9.357-22.613-9.357s-16.613 3.366-22.613 9.357c-2.991 2.957-5.362 6.477-6.974 10.359s-2.432 8.051-2.412 12.254z" />
<glyph unicode="&#xe912;" glyph-name="chevron-up" d="M835.874 251.738c-4.203-0.021-8.371 0.798-12.254 2.411s-7.403 3.981-10.359 6.976l-278.187 278.185c-4.873 4.876-10.658 8.745-17.028 11.384s-13.197 3.998-20.092 3.998c-6.895 0-13.722-1.359-20.087-3.998-6.37-2.639-12.16-6.508-17.033-11.384l-278.186-278.185c-6.066-5.653-14.089-8.73-22.38-8.585s-16.2 3.503-22.063 9.365c-5.863 5.862-9.221 13.773-9.367 22.063s2.931 16.316 8.583 22.383l278.187 278.185c10.787 10.862 23.615 19.482 37.751 25.365 14.131 5.883 29.286 8.911 44.595 8.911s30.464-3.028 44.599-8.911c14.131-5.883 26.961-14.503 37.747-25.365l278.187-278.185c5.995-6.003 9.361-14.135 9.361-22.613 0-8.482-3.366-16.614-9.361-22.613-2.953-2.995-6.477-5.363-10.359-6.976s-8.047-2.432-12.254-2.411z" />
<glyph unicode="&#xe913;" glyph-name="logout" d="M660.877-1.707h-5.547c-189.44 0-280.745 74.667-296.532 241.92-0.792 8.486 1.82 16.943 7.261 23.501 5.441 6.562 13.266 10.692 21.753 11.486s16.941-1.818 23.502-7.262c6.561-5.44 10.692-13.265 11.485-21.751 12.372-133.973 75.518-182.187 232.532-182.187h5.547c173.653 0 235.093 59.733 235.093 233.387v278.613c0 173.653-61.44 235.093-235.093 235.093h-5.547c-158.293-0.427-221.44-51.2-232.958-187.307-0.336-4.202-1.497-8.297-3.415-12.051s-4.558-7.092-7.767-9.827c-3.209-2.734-6.925-4.809-10.936-6.106s-8.239-1.792-12.441-1.456c-4.202 0.336-8.297 1.497-12.051 3.415s-7.092 4.558-9.827 7.767c-5.521 6.481-8.241 14.89-7.562 23.377 14.933 170.667 106.238 245.76 298.665 245.76h5.547c209.493 0 298.667-89.6 298.667-298.667v-278.187c-1.28-209.92-90.88-299.52-300.373-299.52zM260.239 261.973c-4.204-0.021-8.37 0.802-12.253 2.411-3.884 1.613-7.406 3.985-10.36 6.976l-142.933 142.933c-5.993 5.999-9.359 14.131-9.359 22.613s3.366 16.614 9.359 22.613l142.933 142.933c6.066 5.652 14.089 8.73 22.38 8.584s16.2-3.505 22.063-9.368c5.863-5.863 9.222-13.773 9.367-22.063s-2.931-16.313-8.583-22.38l-88.32-88.32h456.105c8.491 0 16.627-3.371 22.63-9.374 5.999-5.999 9.37-14.14 9.37-22.626s-3.371-16.627-9.37-22.626c-6.003-6.003-14.14-9.374-22.63-9.374h-456.105l88.32-88.32c5.993-5.999 9.359-14.131 9.359-22.613s-3.366-16.614-9.359-22.613c-2.954-2.991-6.476-5.363-10.36-6.976-3.883-1.609-8.049-2.432-12.253-2.411z" />
<glyph unicode="&#xe914;" glyph-name="pen" d="M264.967 76.804c-12.595-0.286-25.12 1.946-36.841 6.558-11.722 4.617-22.406 11.524-31.425 20.322-10.605 11.234-18.381 24.836-22.685 39.676s-5.010 30.49-2.062 45.658l18.347 128c4.949 27.81 17.841 53.594 37.12 74.24l336.215 334.505c29.606 34.011 70.238 56.517 114.773 63.573 26.769 0.754 53.367-4.532 77.815-15.463s46.123-27.229 63.411-47.683c20.608-17.251 37.009-38.978 47.949-63.526 10.944-24.547 16.141-51.268 15.198-78.128-6.946-44.477-29.295-85.101-63.147-114.771l-336.213-336.213c-20.702-19.2-46.46-32.081-74.241-37.12l-128-18.347-16.213-1.28zM525.235 596.909l-252.588-252.585c-9.504-10.837-16.109-23.898-19.2-37.973l-18.347-128c-1.103-5.001-1.021-10.193 0.239-15.155s3.661-9.562 7.014-13.431c3.943-3.529 8.671-6.067 13.791-7.403s10.484-1.434 15.649-0.277l128 18.347c14.377 3.2 27.722 9.946 38.828 19.627l252.16 252.16c-72.832 33.724-131.443 92.036-165.547 164.691zM574.302 645.975c13.803-38.024 35.78-72.556 64.384-101.161s63.138-50.581 101.163-64.384l34.56 34.56c22.383 19.595 37.431 46.23 42.667 75.518 0.047 17.238-3.759 34.268-11.14 49.844s-18.155 29.306-31.526 40.182c-10.859 13.396-24.585 24.184-40.162 31.569-15.582 7.384-32.623 11.177-49.865 11.098-29.291-5.233-55.923-20.28-75.52-42.667l-34.56-34.56z" />
<glyph unicode="&#xe915;" glyph-name="search" d="M928 0c-4.203-0.021-8.371 0.802-12.254 2.411-3.883 1.613-7.407 3.985-10.359 6.976l-85.333 85.333c-5.653 6.067-8.73 14.089-8.585 22.379 0.149 8.29 3.507 16.201 9.37 22.063s13.773 9.22 22.063 9.37c8.29 0.145 16.311-2.931 22.379-8.585l85.333-85.333c5.995-5.999 9.357-14.135 9.357-22.613 0-8.482-3.362-16.614-9.357-22.613-2.953-2.991-6.477-5.363-10.359-6.976-3.883-1.609-8.051-2.432-12.254-2.411zM480 42.667c-86.496 0-171.050 25.647-242.969 73.702s-127.973 116.356-161.074 196.271c-33.101 79.91-41.761 167.846-24.887 252.679 16.874 84.835 58.526 162.76 119.689 223.922s139.087 102.814 223.922 119.689c84.833 16.875 172.769 8.214 252.679-24.887 79.915-33.101 148.215-89.155 196.271-161.074s73.702-156.473 73.702-242.969c-0.111-115.955-46.225-227.123-128.218-309.116s-193.161-128.107-309.116-128.218zM480 853.333c-73.838 0-146.018-21.896-207.412-62.918s-109.245-99.329-137.502-167.546c-28.257-68.218-35.65-143.282-21.245-215.7 14.405-72.422 49.962-138.944 102.173-191.155s118.733-87.77 191.153-102.174c72.42-14.404 147.483-7.010 215.703 21.244 68.215 28.258 126.524 76.109 167.548 137.506 41.020 61.393 62.916 133.572 62.916 207.411-0.226 98.945-39.629 193.772-109.594 263.737s-164.796 109.37-263.74 109.596z" />
<glyph unicode="&#xe916;" glyph-name="user-edit" d="M117.333 0c-8.453 0.111-16.528 3.516-22.505 9.493s-9.384 14.054-9.495 22.507c0 182.187 178.773 330.667 398.507 330.667 46.071-0.030 91.904-6.639 136.107-19.627 8.149-2.492 14.972-8.115 18.974-15.633 3.998-7.522 4.847-16.324 2.359-24.474s-8.115-14.972-15.633-18.974c-7.522-4.002-16.324-4.851-24.474-2.359-38.042 11.507-77.589 17.259-117.333 17.067-185.173 0-334.507-119.467-334.507-266.667-0.111-8.452-3.517-16.529-9.495-22.507s-14.053-9.382-22.505-9.493zM646.827 0c-7.889-0.137-15.727 1.301-23.053 4.233s-13.995 7.296-19.614 12.834c-6.647 6.852-11.58 15.177-14.396 24.299-2.816 9.118-3.439 18.773-1.818 28.181l9.387 57.6c2.816 16.081 10.398 30.946 21.76 42.667l128 128 20.907 22.187c15.957 18.159 37.918 29.973 61.867 33.28 14.609 0.96 29.239-1.515 42.722-7.215 13.483-5.705 25.446-14.485 34.931-25.638 11.102-9.549 19.874-21.508 25.643-34.97 5.769-13.457 8.38-28.058 7.637-42.684-3.281-24.077-15.091-46.178-33.28-62.293l-17.493-17.493c-2.172-3.443-5.090-6.362-8.533-8.533l-125.013-125.013c-11.738-11.341-26.594-18.918-42.667-21.76l-58.453-8.107-8.533 0.427zM759.893 221.867l-96.853-96.853c-1.779-2.278-3.085-4.89-3.84-7.68l-7.253-53.333 52.907 7.253c2.432 0.789 4.736 1.941 6.827 3.413l98.987 98.56c-20.207 12.578-37.513 29.299-50.773 49.067v-0.427zM806.827 268.8c10.159-21.517 27.302-38.959 48.64-49.493l7.68 7.68c7.296 6.080 12.518 14.281 14.933 23.467 0 8.107-7.68 18.773-14.933 26.027s-18.347 15.36-25.6 14.507c-9.271-2.219-17.532-7.475-23.467-14.933l-7.253-7.253zM483.84 426.667c-48.521 0-95.955 14.387-136.3 41.344-40.345 26.961-71.79 65.276-90.359 110.104s-23.427 94.157-13.961 141.747c9.466 47.59 32.832 91.304 67.143 125.615s78.025 57.676 125.613 67.142c47.59 9.466 96.922 4.608 141.747-13.961 44.83-18.569 83.145-50.013 110.106-90.358 26.957-40.345 41.344-87.778 41.344-136.3-0.111-65.032-25.997-127.368-71.983-173.35-45.982-45.986-108.318-71.872-173.35-71.983zM483.84 853.333c-35.866 0-70.923-10.635-100.743-30.56s-53.062-48.245-66.787-81.38c-13.725-33.134-17.315-69.594-10.319-104.77s24.267-67.485 49.627-92.846c25.36-25.361 57.67-42.632 92.847-49.625 35.174-6.997 71.633-3.409 104.768 10.317s61.453 36.967 81.378 66.787c19.925 29.82 30.562 64.879 30.562 100.744-0.111 48.058-19.255 94.115-53.235 128.097-33.984 33.982-80.038 53.123-128.098 53.236z" />
<glyph unicode="&#xe917;" glyph-name="close" d="M704.939 233.685c-6.054-5.897-14.174-9.199-22.626-9.199s-16.572 3.302-22.626 9.199l-158.391 158.391-158.393-158.391c-6.001-5.999-14.141-9.37-22.627-9.37s-16.626 3.371-22.627 9.37c-6.001 6.003-9.373 14.14-9.373 22.63 0 8.486 3.371 16.623 9.373 22.626l158.391 158.391-158.391 158.392c-6.001 6.001-9.373 14.141-9.373 22.627s3.371 16.626 9.373 22.627c6.001 6.001 14.14 9.373 22.627 9.373s16.626-3.372 22.627-9.373l158.393-158.39 158.391 158.39c5.999 6.001 14.14 9.373 22.626 9.373s16.627-3.372 22.626-9.373c6.003-6.001 9.374-14.141 9.374-22.627s-3.371-16.626-9.374-22.627l-158.391-158.392 158.391-158.391c5.901-6.054 9.203-14.174 9.203-22.626 0-8.457-3.302-16.576-9.203-22.63z" />
<glyph unicode="&#xe918;" glyph-name="wallet" d="M906.65 777.642c-5.296 68.382-62.591 122.413-132.309 122.413h-621.108c-73.2 0-132.753-59.553-132.753-132.753v-614.219c0-73.2 59.553-132.751 132.753-132.751h717.536c73.2 0 132.751 59.552 132.751 132.751v496.774c0 60.764-41.054 112.086-96.87 127.784zM153.233 838.039h621.112c33.747 0 62.030-23.762 69.050-55.43h-690.162c-25.99 0-50.241-7.537-70.737-20.498v5.192c0 39.004 31.733 70.737 70.737 70.737zM870.769 82.35h-717.536c-39.004 0-70.737 31.732-70.737 70.734v496.774c0 39.004 31.733 70.737 70.737 70.737h717.536c39.006 0 70.738-31.733 70.738-70.737v-108.215h-197.726c-78.352 0-142.098-63.746-142.098-142.098s63.746-142.098 142.098-142.098h197.722v-104.362c0-39.002-31.732-70.734-70.734-70.734zM941.502 319.459h-197.722c-44.159 0-80.081 35.926-80.081 80.085s35.922 80.085 80.081 80.085h197.722v-160.17zM755.294 364.904c17.83 0 32.281 14.455 32.281 32.285s-14.451 32.285-32.281 32.285c-17.83 0-32.285-14.455-32.285-32.285s14.455-32.285 32.285-32.285z" />
<glyph unicode="&#xe919;" glyph-name="credit-card" d="M896.016 798.115h-768.001c-59.286 0-107.52-48.234-107.52-107.52v-460.801c0-59.286 48.234-107.52 107.52-107.52h768.001c59.286 0 107.52 48.234 107.52 107.52v460.801c0 59.286-48.234 107.52-107.52 107.52zM128.015 736.675h768.001c25.407 0 46.080-20.673 46.080-46.080v-61.44h-860.161v61.44c0 25.407 20.673 46.080 46.080 46.080zM896.016 183.714h-768.001c-25.407 0-46.080 20.673-46.080 46.080v337.921h860.161v-337.921c0-25.407-20.673-46.080-46.080-46.080zM235.535 275.874h-30.72c-16.965 0-30.72 13.754-30.72 30.72v30.72c0 16.966 13.755 30.72 30.72 30.72h30.72c16.965 0 30.72-13.754 30.72-30.72v-30.72c0-16.966-13.755-30.72-30.72-30.72z" />
<glyph unicode="&#xe91a;" glyph-name="delivery" d="M709.188 193.443h-320.313c-22.727-74.882-69.564-121.965-150.993-117.955-72.345 3.575-113.946 48.64-133.86 117.301-8.184 0.438-16.149 0.819-24.115 1.282-20.405 1.173-28.18 7.72-28.37 28.126-0.246 23.487 1.773 46.977 2.728 70.492 0.191 4.419 0.491 8.865 0.846 14.594-6.817 2.231-13.511 4.825-20.050 7.773-8.975 4.583-12.767 12.496-11.321 22.587 0.485 4.549 2.451 8.813 5.595 12.136 3.145 3.32 7.294 5.517 11.809 6.253 4.45 0.829 8.985 1.114 13.503 0.844 9.603-0.217 14.567 4.748 17.977 13.34 16.149 40.566 40.319 74.665 78.592 97.686 4.474 2.731 7.884 9.657 8.948 15.196 4.255 21.824 7.365 44.11 11.212 68.198-6.11 0.518-13.967 0.984-21.823 1.828-26.87 2.948-44.438 19.096-44.902 45.584-1.055 59.761-1.055 119.558 0 179.39 0.464 27.279 19.641 45.311 47.439 45.72 57.996 0.855 115.983 0.855 173.96 0 30.99-0.464 48.612-19.887 49.105-53.031 0.735-46.211 0.245-92.423 0.273-138.635v-33.007c23.105-0.49 44.411-1.064 65.716-1.418 35.16-0.546 63.752-14.73 82.655-44.165 22.941-35.682 28.942-73.356 7.094-112.693-5.66-10.333-9.663-21.488-11.869-33.063-7.199-37.807 19.859-71.444 58.405-71.444 19.797-0.366 39.551 1.927 58.734 6.82 22.86 6.355 22.997 10.557 22.097 33.5-1.666 41.599-3.928 83.282-2.728 124.857 0.599 21.305 5.945 43.129 12.822 63.451 11.373 33.553 35.297 56.252 69.070 66.78 7.5 19.096 2.728 34.428-8.974 48.776-6.594 7.482-12.434 15.596-17.433 24.224-13.095 25.097-31.862 38.191-61.105 32.735-2.731-0.353-5.499-0.233-8.186 0.355-12.822 2.1-19.94 9.82-19.996 21.523-0.053 11.703 6.985 21.087 19.586 21.824 19.847 1.678 39.806 1.569 59.634-0.327 8.183-0.982 17.104-9.166 22.916-16.368 14.758-18.168 27.933-37.618 41.708-56.523 20.924 5.456 40.020 10.748 59.305 15.194 7.925 1.856 16.064 2.646 24.197 2.346 13.914-0.6 22.426-7.775 22.699-21.823 0.797-40.756 0.797-81.519 0-122.293-0.301-13.449-9.331-20.269-23.599-21.414-4.419-0.357-8.946 1.036-13.449 1.145-3.354-0.093-6.696-0.403-10.010-0.928l36.281-124.366c22.45-3.001 46.375-3.193 68.444-9.986 23.201-7.472 45.239-18.159 65.471-31.753 23.788-15.686 23.732-26.568 6.057-48.829-11.211-14.159-22.615-28.154-34.946-43.483 27.58-45.366 35.3-92.97 14.075-142.535-15.357-35.902-42.065-60.971-78.373-74.938-42.229-16.365-83.503-13.256-122.756 9.576-38.381 22.342-60.369 56.469-69.781 99.542zM810.94 424.554c-8.183 72.018-33.745 134.107-65.005 160.104-16.368-3.792-26.761-15.605-31.701-30.363-5.945-17.811-11.649-36.634-12.111-55.159-1.117-43.399-2.045-87.291 2.728-130.259 3.466-31.26-9.11-47.737-33.609-60.667-19.478-10.287-39.691-17.569-62.141-17.079-11.757 0.273-23.543 0-35.328 0-47.219 0.301-90.677 34.32-98.205 80.967-3.655 22.531-0.137 46.21 0.192 71.115-3.317 0.959-6.73 1.545-10.178 1.747-77.908 0.164-155.819 0.41-233.728 0-28.261-0.164-53.304-11.267-74.391-29.352-16.913-14.541-31.944-31.372-37.264-58.706h31.153c66.125 0 132.26 0 198.403 0 7.227 0.363 14.473-0.078 21.606-1.309 11.183-2.728 16.365-10.91 15.956-22.205-0.326-10.094-5.809-17.569-15.574-19.751-8.015-1.378-16.157-1.88-24.278-1.499-71.583 0-143.164 0-214.745 0-9.575 0-19.096-0.984-29.653-1.583-4.774-24.551-6.847-46.375-3.301-69.837h32.926c178.488 0 356.95 0.574 535.439-0.462 36.911-0.217 67.953 11.075 93.842 35.461 42.229 39.911 91.878 55.87 149.082 52.050 6.492-0.438 15.168 1.12 19.45 5.238 9.384 8.974 16.586 20.241 24.225 30.006-3.603 4.012-4.558 5.84-6.029 6.603-52.758 26.596-104.125 26.379-153.42-8.595-14.376-10.203-24.551-10.448-33.364 0-8.375 9.877-7.993 23.189 3.029 34.183 7.584 7.556 17.051 13.312 26.106 19.096 6.448 3.761 13.085 7.184 19.887 10.256zM261.97 775.367c0-12.931 0.3-23.597 0-34.263-0.464-12.576-7.638-20.269-19.586-22.669-10.912-2.182-22.396 7.038-25.234 19.805-1.337 6.11-0.819 12.631-1.473 18.905s-1.664 11.948-2.564 18.25h-61.761v-175.324c59.224 1.362 117.301-2.728 175.981 0.872v174.425h-65.363zM755.371 211.447c6.057-60.86 52.624-97.742 110.701-89.256 64.76 9.464 101.097 85.52 67.68 141.579-5.266 8.837-11.348 16.176-22.668 17.132-36.147 3.053-70.464-1.828-100.116-24.551-18.55-14.103-36.392-29.299-55.597-44.904zM210.193 492.752c93.814-4.363 263.847-2.262 284.88 3.438-2.129 34.344-21.988 55.24-55.895 56.304-32.464 1.036-65.008 0.273-97.497 0.273-25.29 0-50.604 0.791-75.837-0.192-35.381-1.39-57.205-24.824-55.65-59.823zM155.635 192.68c12.194-48.038 50.276-74.991 98.97-71.171 42.010 3.302 75.617 32.951 79.847 71.171h-178.816zM825.754 612.78c2.073 21.825 4.856 41.766-2.374 64.135l-34.372-12.276c-5.945-35.519-8.813-48.912 36.718-51.968l0.028 0.109z" />
<glyph unicode="&#xe91b;" glyph-name="dinein" d="M393.244 407.18c-23.158 31.089-44.622 53.493-81.343 52.674-13.049-0.273-26.096 1.939-39.144 1.908-32.816 0-62 10.715-85.19 32.998-53.645 51.464-106.108 104.324-158.512 157.15-13.411 13.532-13.411 26.307-3.27 37.357s25.46 10.989 39.749-2.725c30.455-29.274 59.972-59.488 89.912-89.277 19.224-19.164 38.387-38.416 57.792-57.518 17.165-16.744 36.812-27.49 61.909-26.28 9.082 0.425 18.164-3.025 26.974-2.361 50.618 3.938 88.975-17.557 119.642-55.945 1.753-2.209 4.782-3.451 9.958-7.022 12.111 11.019 24.219 22.249 39.204 35.964-14.379 14.805-26.913 28.79-40.594 41.503-13.684 12.716-21.588 27.611-21.858 47.439-0.335 25.066-3.907 50.074-5.663 75.139s-15.137 43.019-31.936 59.7l-129.996 130.176c-5.947 5.425-11.473 11.294-16.529 17.558-8.356 11.443-7.568 23.916 0.938 33.119 7.659 8.265 22.433 9.96 33.301 2.815 5.673-4.171 10.916-8.896 15.651-14.107 44.047-44.139 87.583-88.792 132.145-132.386 31.058-30.273 49.071-65.724 48.435-109.711 0-5.024 1.272-10.11 0.788-15.137-4.45-44.473 17.892-74.169 55.792-98.993 18.922 17.982 39.598 35.539 57.521 55.644 6.358 7.202 7.084 20.464 8.052 31.179 2.15 22.978 0.363 46.531 4.45 69.085 14.168 78.711 58.579 135.534 129.632 171.197 62.908 31.605 128.844 44.29 198.805 27.973 51.042-11.898 80.195-45.108 88.61-95.15 13.532-80.86-2.845-156.18-49.981-223.659-45.894-65.663-110.71-101.115-189.815-98.996-47.709 1.272-77.529-18.165-103.564-52.494-2.222-3.525-4.245-7.174-6.057-10.929 18.801-16.983 38.208-34.149 57.189-51.768 55.277-51.302 110.446-102.766 165.503-154.394 21.42-20.157 35.443-46.93 39.812-76.015 12.623-74.414-42.93-126.272-116.525-107.837-27.58 6.613-52.575 21.268-71.807 42.111-59.336 64.301-118.722 128.54-178.16 192.72-6.659 7.205-13.442 14.258-21.464 22.798-8.778-8.63-15.984-15.32-22.767-22.432-55.439-58.309-110.85-116.655-166.229-175.042-25.218-26.55-52.464-49.254-89.852-57.521-77.319-17.315-134.565 38.962-117.067 116.342 6.267 28.79 21.094 55.017 42.534 75.23 66.238 63.15 132.467 126.309 198.683 189.48 7.177 6.842 15.894 12.108 24.34 18.438zM952.972 732.739c-0.847 8.567-1.151 20.707-3.361 32.483-8.567 45.41-26.792 61.213-72.989 65.482-58.126 5.358-112.013-7.024-161.296-38.205-50.679-32.12-80.316-77.833-85.343-138.259-1.998-24.036-3.662-48.165-3.966-72.263-0.211-17.436-6.78-30.273-19.617-41.807-46.077-41.937-91.76-84.322-137.048-127.147-86.925-82.143-173.709-164.489-260.351-247.032-16.408-15.562-28.578-33.302-32.12-56.522-5.661-37.146 15.318-58.852 52.070-52.646 22.645 3.845 40.899 15.624 56.642 32.213 36.66 38.63 74.080 76.561 110.528 115.402 86.786 92.334 173.196 184.941 259.233 277.821 15.59 16.893 32.725 25.429 55.187 25.398 18.165 0 36.327 0.211 54.281 1.272 56.249 3.299 102.717 25.882 136.896 71.506 33.15 44.079 48.376 94.301 51.253 152.305zM558.719 302.313c17.74-20.011 32.725-37.509 48.438-54.492 50.455-54.716 101.032-109.31 151.729-163.781 14.836-15.984 32.517-26.764 54.492-29.699 34.695-4.633 53.949 14.957 48.438 49.77-3.361 21.858-14.895 39.145-30.847 53.949-51.467 47.861-102.931 95.936-154.788 143.645-20.586 19.012-41.869 37.267-64.422 57.279l-53.040-56.671zM110.16 765.89c7.447-4.117 15.439-6.63 20.768-11.837 42.837-42.171 85.553-84.493 127.481-127.542 12.806-13.138 11.897-26.761 0.848-37.146-10.475-9.837-24.885-9.899-37.509 2.482-42.201 41.394-83.979 83.213-125.332 125.454-14.168 14.501-15.137 26.277-4.813 37.055 4.541 4.692 11.352 7.205 18.557 11.534zM333.7 677.612c-0.788-22.433-18.587-33.634-34.784-26.126-6.193 3.241-11.784 7.521-16.529 12.654-38.346 38.084-76.592 76.309-114.736 114.676-18.164 18.497-20.465 31.696-8.477 43.927 11.141 11.322 27.519 9.082 44.26-7.629 38.346-38.023 76.501-76.37 114.463-115.039 7.236-7.296 12.080-17.135 15.804-22.463z" />
<glyph unicode="&#xe91c;" glyph-name="take-away" horiz-adv-x="1056" d="M306.1 367.696c-20.114 0.003-39.777-5.962-56.502-17.136-16.724-11.178-29.76-27.059-37.458-45.642-7.698-18.586-9.712-39.034-5.788-58.762s13.61-37.85 27.833-52.070c14.223-14.224 32.344-23.91 52.072-27.834 19.728-3.926 40.175-1.91 58.761 5.786 18.582 7.696 34.467 20.733 45.642 37.456 11.174 16.726 17.139 36.387 17.139 56.502-0.029 26.963-10.755 52.813-29.821 71.878s-44.915 29.792-71.878 29.821zM306.1 194.298c-14.181 0-28.044 4.205-39.835 12.083s-20.981 19.075-26.408 32.179c-5.427 13.101-6.847 27.517-4.080 41.424 2.767 13.91 9.596 26.685 19.623 36.714 10.028 10.026 22.803 16.854 36.712 19.622s28.324 1.347 41.425-4.080c13.104-5.427 24.301-14.618 32.179-26.41 7.878-11.789 12.083-25.654 12.083-39.834-0.022-19.008-7.581-37.235-21.024-50.675-13.44-13.443-31.664-21.002-50.675-21.024zM1045.325 650.351c-0.006 0.289-0.010 0.579-0.032 0.869-0.006 0.061-0.016 0.123-0.022 0.183-0.016 0.196-0.051 0.388-0.077 0.582-0.032 0.242-0.058 0.485-0.102 0.727l-0.029 0.137c-0.051 0.259-0.118 0.512-0.182 0.767-0.048 0.19-0.090 0.381-0.144 0.571-0.006 0.023-0.010 0.047-0.016 0.070l-0.013 0.033c-0.090 0.303-0.202 0.597-0.31 0.892-0.042 0.115-0.074 0.231-0.118 0.345l-0.106 0.267-0.013 0.030-61.619 154.7c-0.685 2.83-1.824 5.531-3.376 7.995-0.163 0.283-0.326 0.566-0.509 0.835-0.045 0.069-0.099 0.133-0.147 0.202-0.272 0.39-0.557 0.766-0.861 1.124-0.272 0.35-0.518 0.715-0.81 1.054-2.531 2.961-5.677 5.338-9.216 6.966-3.542 1.629-7.392 2.471-11.29 2.469h-503.152c-5.766 0.019-11.386-1.816-16.029-5.234s-8.061-8.239-9.757-13.75l-18.307-58.887h-87.987v105.299l73.984 75.93c2.778 2.849 4.307 6.684 4.256 10.662s-1.68 7.772-4.528 10.549c-2.848 2.776-6.685 4.307-10.662 4.256s-7.773-1.681-10.55-4.53l-78.243-80.299c-2.73-2.801-4.258-6.557-4.258-10.469v-111.398h-146.85c-6.941 0.016-13.729-2.040-19.495-5.904s-10.249-9.36-12.874-15.786l-21.082-51.262h-34.456c-9.279-0.011-18.175-3.701-24.737-10.263s-10.252-15.458-10.263-24.737v-44.353c0.011-9.277 3.701-18.173 10.263-24.736 6.562-6.56 15.458-10.253 24.737-10.262h5.121l56.108-589.277c1.031-11.162 6.202-21.53 14.496-29.066 8.293-7.539 19.108-11.696 30.315-11.661h777.975c0.042 0 0.080 0.010 0.122 0.010 0.592 0.010 1.181 0.051 1.77 0.128 0.186 0.022 0.368 0.054 0.557 0.083 0.534 0.090 1.062 0.205 1.587 0.349 0.099 0.029 0.202 0.048 0.301 0.080 0.624 0.192 1.235 0.426 1.83 0.698 0.125 0.054 0.243 0.115 0.365 0.176 0.602 0.288 1.184 0.614 1.741 0.979l0.032 0.019 0.026 0.016 0.074 0.051 85.453 56.966c3.427 2.282 6.237 5.373 8.179 9.002 1.939 3.629 2.954 7.683 2.95 11.798v633.406c0 0.031 0 0.062 0 0.094v0.128c0 0.126-0.016 0.248-0.019 0.374zM974.992 748.409l35.344-88.74-51.523-15.346 16.179 104.086zM139.627 720.2c0.375 0.918 1.015 1.703 1.838 2.256s1.793 0.846 2.785 0.844h275.782c0.074-0.001 0.15-0.001 0.224 0h47.693c0.989 0.002 1.958-0.292 2.784-0.844 0.822-0.552 1.462-1.338 1.837-2.256l16.39-39.852h-365.722l16.389 39.852zM56.344 595.997c-1.326 0-2.597 0.528-3.534 1.466s-1.465 2.208-1.466 3.533v44.353c0.001 1.326 0.528 2.597 1.466 3.534s2.208 1.465 3.534 1.466h44.567c0.046 0 0.093 0 0.14 0l410.303-0.004c0.026 0 0.054 0.004 0.080 0.004h44.419c1.328-0.001 2.598-0.528 3.536-1.466s1.462-2.209 1.466-3.534v-44.353c-0.003-1.325-0.528-2.595-1.466-3.533s-2.208-1.466-3.536-1.466h-499.509zM485.098 193.206l-20.349-213.635c-0.336-3.712-2.051-7.165-4.806-9.677s-6.349-3.901-10.077-3.898l-287.483-0.003c-3.737-0.013-7.343 1.376-10.109 3.888s-4.491 5.971-4.836 9.69l-55.839 586.426h429.009l-35.485-372.525c-0.010-0.086-0.016-0.176-0.026-0.266zM534.282 393.174l296.061-0.003c1.328-0.003 2.598-0.528 3.536-1.466s1.466-2.211 1.466-3.536v-176.346c0-1.325-0.528-2.595-1.466-3.533s-2.208-1.466-3.536-1.466l-313.811-0.003 17.75 186.352zM925.344-34.003h-433.12c1.229 3.469 2.032 7.072 2.39 10.733l19.059 200.093 316.669 0.003c9.28 0.010 18.176 3.699 24.739 10.262 6.56 6.56 10.253 15.456 10.262 24.736v176.346c-0.010 9.28-3.702 18.176-10.262 24.739-6.563 6.56-15.459 10.25-24.739 10.262l-293.203 0.003 13.603 142.822h5.11c9.28 0.010 18.176 3.702 24.739 10.262 6.56 6.563 10.25 15.459 10.262 24.736v7.178h334.49v-642.176zM927.494 638.173h-336.64v7.175c-0.013 9.279-3.702 18.176-10.262 24.737-6.563 6.561-15.459 10.252-24.739 10.263h-34.454l-21.082 51.262c-2.624 6.426-7.107 11.922-12.874 15.786s-12.554 5.92-19.494 5.904h-27.443l14.883 47.871h497.443l-25.338-162.997zM1015.344 19.024l-60-40v632.966l60 17.869v-610.835z" />
<glyph unicode="&#xe91d;" glyph-name="check" d="M384 270.080l-148.053 148.053c-16.64 16.64-43.52 16.64-60.16 0s-16.64-43.52 0-60.16l178.347-178.347c16.64-16.64 43.52-16.64 60.16 0l451.413 451.413c16.64 16.64 16.64 43.52 0 60.16s-43.52 16.64-60.16 0l-421.547-421.12z" />
</font>
</defs>
</svg>
