<svg width="543" height="136" viewBox="0 0 543 136" fill="none" xmlns="http://www.w3.org/2000/svg">
<g clip-path="url(#clip0_181_469)">
<path d="M167.732 101.745V120.916H164.639V101.745H160V98.5185H172.371V101.745H167.732Z" fill="#6AB058"/>
<path d="M199.346 115.412H190.755L188.521 120.916H185.085L195.05 97.1898L204.672 120.916H201.408L199.346 115.412ZM197.971 112.375L195.05 104.782L191.958 112.375H197.971Z" fill="#6AB058"/>
<path d="M230.273 109.338H238.692V110.097C238.692 111.805 238.52 113.324 238.176 114.652C237.833 115.791 237.317 116.93 236.458 118.069C234.568 120.347 232.163 121.485 229.242 121.485C226.493 121.485 223.915 120.347 222.025 118.069C219.964 115.791 218.933 113.134 218.933 109.907C218.933 106.68 219.964 103.833 222.025 101.555C224.087 99.2776 226.664 98.1388 229.585 98.1388C231.132 98.1388 232.678 98.5184 234.053 99.2776C235.427 100.037 236.63 101.176 238.004 102.694L235.771 104.972C234.053 102.504 232.163 101.366 229.757 101.366C227.695 101.366 225.805 102.125 224.431 103.833C223.056 105.352 222.197 107.439 222.197 109.907C222.197 112.375 223.056 114.463 224.603 115.981C226.149 117.499 227.695 118.259 229.585 118.259C231.132 118.259 232.506 117.689 233.709 116.55C234.912 115.412 235.599 114.083 235.771 112.564H230.788V109.338H230.273Z" fill="#6AB058"/>
<path d="M268.244 98.5185V117.689H274.258V120.916H265.323V98.5185H268.244Z" fill="#6AB058"/>
<path d="M293.503 98.5185V120.916H290.41V98.5185H293.503Z" fill="#6AB058"/>
<path d="M311.888 120.916V97L326.664 114.083V98.5185H329.757V122.245L314.98 105.162V120.916H311.888Z" fill="#6AB058"/>
<path d="M359.137 101.745H351.061V107.06H358.965V110.287H351.061V117.689H359.137V120.916H347.969V98.5185H359.137V101.745Z" fill="#6AB058"/>
<path d="M388.517 107.25H397.28V98.5185H400.373V120.916H397.28V110.477H388.517V120.916H385.425V98.5185H388.517V107.25Z" fill="#6AB058"/>
<path d="M429.753 101.745H421.678V107.06H429.581V110.287H421.678V117.689H429.753V120.916H418.585V98.5185H429.753V101.745Z" fill="#6AB058"/>
<path d="M453.979 111.426L460.336 120.916H456.556L450.715 111.805H450.199V120.916H447.106V98.5185H450.715C453.464 98.5185 455.354 99.0879 456.556 100.227C457.931 101.555 458.446 103.074 458.446 105.162C458.446 106.68 458.103 108.199 457.244 109.338C456.385 110.287 455.354 111.046 453.979 111.426ZM450.199 108.768H451.23C454.151 108.768 455.525 107.629 455.525 105.162C455.525 102.884 454.151 101.745 451.23 101.745H450.199V108.768Z" fill="#6AB058"/>
<path d="M488 101.745H479.925V107.06H487.828V110.287H479.925V117.689H488V120.916H476.832V98.5185H488V101.745Z" fill="#6AB058"/>
<path d="M166.396 71.3387C162.132 65.0218 160 56.8469 160 47.1857C160 37.5245 162.132 29.3497 166.396 23.0327C170.66 16.7158 175.634 13.3715 181.794 13.3715C186.531 13.3715 190.558 15.2295 194.348 19.3169C197.902 23.4043 200.507 28.6065 201.929 35.6666H189.611C187.952 30.836 185.347 28.2349 181.794 28.2349C178.24 28.2349 175.398 30.0928 173.503 33.4371C171.371 36.7813 170.423 41.612 170.423 47.1857C170.423 53.1311 171.371 57.5902 173.503 60.9344C175.634 64.2787 178.24 66.1366 181.794 66.1366C185.347 66.1366 187.952 63.5355 189.611 58.7049H201.929C200.507 65.765 197.902 70.9672 194.348 75.0546C190.795 79.142 186.531 81 181.794 81C175.634 81 170.423 77.6557 166.396 71.3387Z" fill="#435966"/>
<path d="M224.9 71.3388C220.636 65.0218 218.504 56.847 218.504 46.8142C218.504 37.153 220.636 28.9781 224.9 22.6612C229.164 16.3442 234.138 13 240.297 13C246.456 13 251.431 16.3442 255.695 22.6612C259.959 28.9781 261.854 37.153 261.854 46.8142C261.854 56.4754 259.722 64.6503 255.695 71.3388C251.431 77.6557 246.456 81 240.297 81C234.375 81 229.164 77.6557 224.9 71.3388ZM248.352 60.9345C250.483 57.5902 251.431 52.7595 251.431 47.1858C251.431 41.2404 250.483 36.7814 248.352 33.4371C246.22 30.0928 243.614 28.2349 240.297 28.2349C236.981 28.2349 234.138 30.0928 232.243 33.4371C230.111 36.7814 229.164 41.612 229.164 47.1858C229.164 53.1311 230.111 57.5902 232.243 60.9345C234.375 64.2787 236.981 66.1366 240.297 66.1366C243.614 66.1366 246.456 64.2787 248.352 60.9345Z" fill="#435966"/>
<path d="M325.806 14.1147V80.2568H315.62V42.7267L305.907 80.2568H298.327L288.615 42.7267V80.2568H278.429V14.1147H290.273L302.354 59.8196L314.435 14.1147H325.806Z" fill="#435966"/>
<path d="M374.359 34.5519C374.359 39.0109 373.412 43.4699 371.28 47.5574C370.096 49.7869 368.674 51.2732 366.542 52.7595C364.41 54.2459 361.804 54.6175 358.962 54.6175H352.566V80.2568H342.38V14.1147H358.962C363.936 14.1147 367.727 15.9726 370.332 20.0601C372.938 24.1475 374.359 28.6065 374.359 34.5519ZM352.329 42.3552H358.725C360.383 42.3552 361.568 41.612 362.515 40.1257C363.463 38.6393 363.936 36.7814 363.936 34.5519C363.936 32.3224 363.463 30.0929 362.515 28.6065C361.568 27.1202 360.383 26.377 358.962 26.377H352.566V42.3552H352.329Z" fill="#435966"/>
<path d="M421.729 80.2569L419.36 69.1093H404.199L401.83 80.2569H390.934L405.621 13.7432H418.175L432.862 80.2569H421.729ZM406.805 56.8471H416.754L411.779 33.0657L406.805 56.8471Z" fill="#435966"/>
<path d="M476.916 13.7432H487.102V80.2569H476.916L459.624 38.2678V80.2569H449.438V13.7432H459.624L476.916 55.7322V13.7432Z" fill="#435966"/>
<path d="M528.551 80.2568H518.365V59.0765L503.678 14.1147H515.285L523.339 44.2131L531.393 14.1147H543.001L528.314 59.0765V80.2568H528.551Z" fill="#435966"/>
<path d="M58.3422 20.4741V77.6436V116.614H20.3016C22.1741 107.316 26.7074 98.8101 33.606 91.8865C40.406 85.0618 48.9799 80.512 58.2436 78.6327C58.1451 78.336 58.1451 78.0393 58.1451 77.6436H20.5973C20.4002 77.8414 20.2031 78.0393 20.1045 78.1382C13.8958 84.3694 8.96827 91.6887 5.519 99.7992C1.97117 108.206 0.197266 117.108 0.197266 126.307V136H77.5596H77.6581V77.6436V76.9512V67.9505V20.2764H77.7567H115.797C113.925 29.5738 109.391 38.08 102.493 45.0036C97.5654 49.9491 91.8494 53.6087 85.5422 56.0814V58.2574H116.586C122.597 52.125 127.328 45.0036 130.678 37.0909C134.226 28.6836 136 19.7818 136 10.5832V0.890137H58.3422V20.4741Z" fill="#6AB058"/>
<path d="M58.3415 78.6328V77.7426H58.0459C58.0459 78.0393 58.1444 78.336 58.1444 78.7316C58.243 78.6327 58.243 78.6328 58.3415 78.6328Z" fill="#6AB058"/>
<path d="M58.0464 77.6436H58.342V20.4741C58.1449 20.2763 57.9478 20.0785 57.7507 19.8807C51.542 13.6494 44.2493 8.70396 36.1681 5.34105C27.7913 1.78033 18.9217 0 9.75652 0H0V77.7425H20.4985H58.0464V77.6436ZM19.3159 58.2574V20.2764C28.6782 22.1556 37.1536 26.7055 44.0522 33.6291C50.8522 40.4538 55.484 49.0589 57.3565 58.3564H19.3159V58.2574Z" fill="#435966"/>
<path d="M85.4434 77.6437H115.698V115.625C106.336 113.745 97.8607 109.196 90.9622 102.272C88.8926 100.195 87.1187 98.0189 85.4434 95.744V123.043C89.5825 126.109 94.1158 128.582 98.8462 130.659C107.223 134.22 116.093 136 125.258 136H135.014V58.2574H116.487H85.4434V77.6437Z" fill="#435966"/>
<path d="M77.4609 136H77.6581V77.6436V76.9513V67.9505V20.2764H77.4609V136Z" fill="white"/>
</g>
<defs>
<clipPath id="clip0_181_469">
<rect width="543" height="136" fill="white"/>
</clipPath>
</defs>
</svg>
