<svg width="177" height="188" fill="none" xmlns="http://www.w3.org/2000/svg"><g clip-path="url(#clip0_2668_6914)"><path d="M85.793 64.871l1.187.654-1.187.654-.647 1.2-.646-1.2-1.188-.654 1.188-.654.647-1.2.646 1.2z" fill="#EBEBEB"/><path d="M165.442 164.764c.52.25.984.603 1.364 1.039.381.436.67.945.851 1.496.358 1.11.46 2.288.297 3.444-.248 2.24-1.506 4.479-2.857 6.27-1.856-1.639-2.286-4.501-2.414-5.965-.2-2.316.828-6.628 2.759-6.27m1.816 15.917a3.726 3.726 0 01.122-1.914 3.687 3.687 0 011.057-1.593 4.826 4.826 0 011.677-.929 4.785 4.785 0 011.902-.2 2.035 2.035 0 011.568.713 1.587 1.587 0 010 1.598c-.28.487-.684.889-1.169 1.165-1.613 1.021-3.358 1.711-5.179 1.16" fill="#6AB058"/><path d="M164.875 187.538c.008-.151.03-.301.067-.448.058-.323.133-.739.226-1.241a13.12 13.12 0 011.262-3.959 7.91 7.91 0 012.813-3.018 5.45 5.45 0 011.148-.515c.107-.036.216-.064.327-.085.076 0 .12-.023.12 0a7.88 7.88 0 00-1.537.712 8.125 8.125 0 00-2.729 3 14.117 14.117 0 00-1.293 3.874c-.116.52-.204.941-.275 1.232a2.34 2.34 0 01-.129.448z" fill="#263238"/><path d="M164.946 168.114a.974.974 0 010 .202c0 .148 0 .336.036.573 0 .502.053 1.223.079 2.118.058 1.792.107 4.259.093 6.991a206.153 206.153 0 01-.15 6.991c-.036.896-.071 1.617-.102 2.119 0 .233-.031.425-.04.573.006.067.006.134 0 .202a.759.759 0 010-.202v-.578c0-.519.027-1.236.049-2.118.044-1.792.093-4.259.106-6.987.013-2.727 0-5.199-.044-6.986 0-.896-.027-1.599-.036-2.118v-.578a.974.974 0 01.009-.202z" fill="#263238"/><path d="M164.043 182.052a8.685 8.685 0 00-1.576-3.732 8.559 8.559 0 00-3.089-2.592c-.62-.3-1.431-.497-1.94-.027-.51.471-.399 1.308-.147 1.957a7.357 7.357 0 002.668 3.317 7.229 7.229 0 004.039 1.26" fill="#6AB058"/><path d="M159.679 177.847c.138.045.271.104.399.174.152.071.3.152.443.242.195.109.384.228.567.358a9.036 9.036 0 011.342 1.129c.504.517.95 1.09 1.329 1.706.368.623.666 1.285.886 1.975a9.359 9.359 0 01.328 1.734c.022.224.032.45.031.676.009.17.009.34 0 .51-.004.151-.02.301-.049.448-.036 0 .027-.622-.084-1.608a6.78 6.78 0 00-.129-.801 8.897 8.897 0 00-.226-.896 9.979 9.979 0 00-.863-1.935 10.114 10.114 0 00-1.281-1.688c-.23-.228-.443-.448-.673-.636-.2-.179-.41-.346-.629-.502-.846-.595-1.404-.855-1.391-.886z" fill="#263238"/><path d="M61.61 30.901c.541 0 6.561 1.465 8.254 4.479 1.692 3.014 2.423 14.058 2.423 14.058s.487 7.766-.567 11.492c-1.055 3.726-4.501 22.048-5.76 25.765-1.638 4.765-3.955 12.634-3.955 12.634L42.172 85.092l19.439-54.19z" fill="#6AB058"/><path d="M67.91 13.7c-.855 1.871-.58 4.061-.075 6.059.505 1.997 1.223 3.976 1.21 6.041-.023 3.028-.785 7.166-6.854 5.209-3.694-1.187-.297 9.902-2.294 13.265a5.722 5.722 0 01-1.431 1.791c-1.493 1.07-3.544.448-5.254-.21-.545-.21-1.17-.506-1.294-1.084a1.81 1.81 0 01.111-.895 89906.39 89906.39 0 009.06-30.405" fill="#263238"/><path d="M57.588 37.368c3.478-.828 4.55-2.58 4.59-5.674l.062-3.927s3.85-.202 4.749-6.002c.57-3.774.765-7.597.584-11.411-.239-3.484-3.783-9.62-7.225-9.244l-9.404 4.631a2.008 2.008 0 00-1.3.683c-.332.384-.51.88-.499 1.39l.731 22.483" fill="#FFBEA9"/><path d="M65.372 14.371a.747.747 0 01-.205.52.732.732 0 01-.504.228.688.688 0 01-.689-.394.709.709 0 01-.069-.273.744.744 0 01.2-.522.727.727 0 01.505-.23.698.698 0 01.692.397.718.718 0 01.07.274zm1.187-1.384c-.067.126-.713-.21-1.484-.04-.771.17-1.245.734-1.351.645-.107-.09 0-.247.199-.506a1.825 1.825 0 012.26-.484c.287.166.407.34.376.385zm-8.784 1.299a.748.748 0 01-.203.522.732.732 0 01-.506.23.697.697 0 01-.688-.398.718.718 0 01-.07-.273.748.748 0 01.201-.52.732.732 0 01.504-.233.703.703 0 01.69.399.725.725 0 01.072.273zm.943-.461c-.124.076-.576-.546-1.404-.788-.829-.242-1.555 0-1.617-.117-.031-.058.12-.224.443-.35a2.092 2.092 0 011.329-.035c.433.125.813.391 1.08.757.196.282.231.497.169.533zm2.955 5.079a5.1 5.1 0 011.284-.238c.2 0 .395-.062.443-.201a1.034 1.034 0 00-.133-.605 223.89 223.89 0 01-.602-1.554c-.837-2.217-1.44-4.03-1.33-4.066.112-.036.838 1.733 1.67 3.945.205.547.395 1.066.577 1.563.128.246.166.53.106.802a.506.506 0 01-.332.3c-.111.03-.226.047-.341.05-.446.06-.897.06-1.342.004z" fill="#263238"/><path d="M62.24 27.815a14.463 14.463 0 01-7.686-2.055s1.927 4.142 7.663 3.583l.023-1.528zm-.696-6.968a2.13 2.13 0 00-1.52-1.016.878.878 0 00-.885.501 1.466 1.466 0 00.124 1.344 1.202 1.202 0 001.2.582c.387-.112.733-.338.993-.65a.74.74 0 00.199-.286.498.498 0 00-.062-.421" fill="#E4977C"/><path d="M59.36 19.463c.129 0 .133.86.886 1.473.753.614 1.653.52 1.662.64 0 .055-.204.166-.59.18a2.134 2.134 0 01-1.386-.484 1.904 1.904 0 01-.673-1.236c-.067-.363.026-.578.102-.573zm.049-9.328c-.097.206-.886.027-1.807.045-.922.018-1.71.201-1.812 0-.049-.099.102-.291.443-.448a3.135 3.135 0 012.76-.032c.305.153.46.332.416.435zm7.394 1.11c-.173.184-.85 0-1.666 0-.815 0-1.502.121-1.661-.071-.071-.094.04-.273.34-.448a2.673 2.673 0 011.352-.291c.467.002.926.129 1.329.367.288.166.394.354.306.444z" fill="#263238"/><path d="M36.883 32.586c1.254-2.047 5.29-6.946 6.72-10.3 1.02-2.406 1.772-10.857 3.965-15.205C49.761 2.73 52.304.958 54.815.273A5.699 5.699 0 0157.747.17c.97.222 1.866.694 2.601 1.37 1.134 1.03 1.524 4.031 1.524 4.031s-6.064 1.344-8.106 4.855c-2.344 4.03-2.911 6.037-2.911 6.037l-.762 2.195s.713 4.25.975 6.35c.261 2.1-.16 4.03-1.87 4.927l-3.437 2.458s1.865 20.283 1.639 20.454c-.51.398-4.816-.484-8.714-1.384-.753-.175-1.165-7.345-1.165-7.345l-1.138 6.718-2.915-.676s.864-13.4 3.415-17.574z" fill="#263238"/><path d="M61.757 5.584a4.883 4.883 0 013.139.898 4.975 4.975 0 011.893 2.685c.58 1.792 1.024 6.96 1.024 6.96s.505-4.103.319-6.45c-.187-2.346-1.33-5.306-3.124-6.946-1.794-1.639-3.18-2.342-6.272-2.15a5.448 5.448 0 012.02 1.747c.398.596.492 1.026 1.001 3.256z" fill="#263238"/><path d="M50.895 16.754a1.771 1.771 0 00-.245-.844 1.747 1.747 0 00-.618-.618 1.723 1.723 0 00-1.684-.034c-.603.35-1.063 1.062-1.01 2.423.15 3.632 3.725 2.732 3.73 2.629.004-.103-.098-2.056-.173-3.556z" fill="#FFBEA9"/><path d="M49.911 18.98s-.062.044-.164.098a.618.618 0 01-.47.031c-.385-.125-.726-.721-.77-1.375a2.11 2.11 0 01.137-.896.742.742 0 01.443-.506.315.315 0 01.377.157c.053.103.03.175.049.18.017.004.075-.063.04-.211a.402.402 0 00-.151-.224.44.44 0 00-.35-.076.884.884 0 00-.63.59 2.147 2.147 0 00-.176 1.022c.053.73.443 1.397.979 1.527a.662.662 0 00.567-.116c.115-.112.133-.197.12-.202z" fill="#E4977C"/><path d="M49.017 4.988a26.258 26.258 0 00-4.43 10.574c-.443 2.387-.563 4.971-1.998 6.915-.753 1.026-1.825 1.814-2.383 2.956-.603 1.25-.514 2.768-1.219 3.959-.77 1.294-2.308 1.908-3.309 3.027-1.887 2.114-1.47 5.375-2.241 8.11a9.186 9.186 0 01-2.889 4.48c-.47.394-1.045.895-.886 1.509a1.406 1.406 0 00.789.752c1.085.56 2.09 2.687 3.291 2.934.248-6.53 3.38-14.372 6.782-19.93 1.94-3.175 4.08-6.341 4.847-9.992.545-2.369.42-4.877.7-7.295.279-2.418 1.005-4.985 2.83-6.601" fill="#263238"/><path d="M47.945 21.3c-.05.053-.377-.099-.807-.587a4.599 4.599 0 01-1.04-2.548c-.06-.662.02-1.33.234-1.958a6.378 6.378 0 011.108-1.92 15.015 15.015 0 011.643-1.685 25.353 25.353 0 016.025-4.03c1.329-.636 2.565-1.044 3.513-1.505a8.05 8.05 0 002.068-1.344c.443-.403.634-.676.714-.631.08.045 0 .39-.372.927a6.38 6.38 0 01-2.025 1.791c-.966.587-2.184 1.088-3.424 1.742a30.457 30.457 0 00-3.894 2.441c-.662.49-1.283.985-1.865 1.487-.559.468-1.084.976-1.573 1.518a5.828 5.828 0 00-1.023 1.572 4.18 4.18 0 00-.314 1.577c.003.812.207 1.611.593 2.324.28.497.496.761.439.828z" fill="#263238"/><path d="M49.402 21.46s-.062-.022-.177-.085a2.966 2.966 0 01-.47-.309c-.543-.438-.977-1-1.267-1.639a4.614 4.614 0 01-.305-3.063 6.157 6.157 0 012.153-3.073 30.244 30.244 0 013.06-2.158 45.83 45.83 0 012.628-1.554c.762-.417 1.39-.73 1.83-.94l.504-.234c.12-.049.182-.071.186-.062-.208.14-.425.266-.651.376a41.12 41.12 0 00-1.772 1.003c-.73.435-1.635.968-2.596 1.59a34.006 34.006 0 00-3.025 2.159 6.053 6.053 0 00-2.1 2.951 4.524 4.524 0 00.252 2.938A4.573 4.573 0 0048.826 21c.346.313.59.438.576.46zM56.534.04a2.289 2.289 0 011.183.076c.93.246 1.793.706 2.52 1.343a4.77 4.77 0 011.467 2.468c.072.293.108.594.106.896a.762.762 0 01-.026.318c-.045 0-.04-.448-.24-1.151a4.987 4.987 0 00-1.457-2.334A6.827 6.827 0 0057.673.313 10.146 10.146 0 0056.534.04z" fill="#455A64"/><path d="M47.435 19.844s-.168.17-.416.51a3.735 3.735 0 00-.665 1.63 3.559 3.559 0 00.603 2.486c.288.447.69.808 1.162 1.044.473.236 1 .34 1.527.3a2.373 2.373 0 001.422-.69c.344-.376.578-.84.677-1.343a4.13 4.13 0 00-.221-2.566A2.374 2.374 0 0050.3 20.01a3.195 3.195 0 00-.629-.161h.173c.166.008.33.04.487.094.582.215 1.058.65 1.33 1.213a4.24 4.24 0 01.283 2.688 2.992 2.992 0 01-.722 1.455 2.598 2.598 0 01-1.56.761 2.88 2.88 0 01-1.696-.34 3.403 3.403 0 01-1.192-1.093 3.646 3.646 0 01-.576-2.629 3.524 3.524 0 01.753-1.661c.105-.128.22-.246.346-.354.102-.108.128-.143.137-.139z" fill="#E0E0E0"/><path d="M33.352 177.717l2.521-11.049-8.869-1.5v8.075l2.468 3.677 3.88.797z" fill="#FFBEA9"/><path d="M34.172 177.184l-.297.479s5.963 8.406 5.081 9.987l-15.854-10.301 3.61-5.195a10.843 10.843 0 003.188 3.336 10.71 10.71 0 004.272 1.694z" fill="#6AB058"/><path d="M27.23 174.9a.77.77 0 00-.92.448.76.76 0 00.037.555.744.744 0 00.405.376.8.8 0 00.58-.054.819.819 0 00.395-.434.785.785 0 00-.563-.918m-4.062 2.476l.886-1.249 14.875 10.345s.51.77.11 1.218l-15.871-10.314z" fill="#fff" opacity=".6"/><path d="M33.902 177.744c-.053.076-.443-.139-1.005-.135-.563.005-.953.202-1.006.121-.053-.081.354-.448 1.01-.448.655 0 1.063.399 1.001.462zm1.218 1.777c-.031.086-.443 0-.921.162-.479.161-.776.448-.85.407-.076-.04.159-.528.752-.716.594-.188 1.068.071 1.02.147zm-.337 2.625c-.08-.027.062-.488.532-.788.47-.3.943-.233.934-.148-.008.085-.376.17-.762.421-.385.251-.62.56-.704.515z" fill="#263238"/><path d="M11.575 107.838l7.952 1.079-3.061 8.863-8.523-2.96-.483-3.278 4.115-3.704z" fill="#FFBEA9"/><path d="M8.78 115.42l-.478-.206S1.577 121.999 0 121.421l6.973-16.234 5.249 2.566a10.108 10.108 0 00-2.547 3.454c-.594 1.323-.9 2.76-.895 4.213z" fill="#6AB058"/><path d="M9.808 108.644a.724.724 0 00-.126-.499.709.709 0 00-.424-.285.68.68 0 00-.496.114.695.695 0 00-.283.428.773.773 0 00.136.531.76.76 0 00.453.302c.35.027.775-.304.744-.658m-2.839-3.39l1.262.613-7.145 15.339s-.62.582-1.09.282l6.973-16.234z" fill="#fff" opacity=".6"/><path d="M8.23 115.25c-.075-.036.058-.448-.026-.95-.084-.501-.323-.851-.261-.895.062-.045.465.259.553.869.09.609-.199 1.025-.265.976zm-1.426 1.397c-.084 0-.07-.416-.288-.833-.217-.416-.531-.645-.496-.721.036-.076.505.067.762.587.257.519.098.999.022.967zm-2.432.081c0-.076.443 0 .793.376.35.376.355.837.275.842-.08.004-.208-.323-.496-.641-.288-.318-.598-.492-.572-.577zm50.895-17.39c-.704.353-9.586 34.964-12.381 36.392l-5.675 28.148a2.437 2.437 0 01.385 1.823c-.128 1.236-.642 1.428-.642 1.428s-8.16 1.044-11.442-1.366c0 0 .385-2.472.58-2.687.195-.215.966-22.513 2.96-27.722 1.993-5.209 4.637-21.672 4.38-24.99-.257-3.319-1.16-11.062-.965-13.534a23.433 23.433 0 011.027-4.95l21.773 7.458z" fill="#263238"/><path d="M58.793 100.735s-3.012 20.87-5.608 24.265c-2.596 3.395-6.14 3.484-6.981 3.628-.842.143-31.43-11.291-31.43-11.291s-.5-8.424.496-9.682c0 0 2.738.125 3.358 1.007l15.916 2.24 5.848-17.977 18.401 7.81z" fill="#263238"/><path d="M53.57 100.699a1.662 1.662 0 01-.066.358l-.23 1.026a420.58 420.58 0 00-.886 3.744l-3.048 12.334c-1.183 4.823-2.414 9.159-3.628 12.182a42.981 42.981 0 01-1.55 3.524c-.2.408-.373.717-.488.927a2.768 2.768 0 01-.181.314 1.77 1.77 0 01.141-.336c.098-.22.262-.529.443-.945.381-.82.886-2.024 1.48-3.543 1.17-3.032 2.374-7.358 3.544-12.177s2.308-9.149 3.1-12.32c.408-1.559.736-2.826.97-3.726.116-.426.21-.762.276-1.012.031-.12.073-.237.124-.35zm-21.05-4.411s0 .108-.036.314c-.035.206-.03.51-.026.895 0 .788.084 1.922.204 3.328.12 1.406.288 3.077.443 4.926.155 1.85.443 3.888.443 6.051.057 4.335-.917 8.16-1.502 10.9l-.704 3.261-.191.896a2.023 2.023 0 01-.08.304c.001-.105.013-.21.036-.313.035-.229.084-.524.146-.896.137-.775.35-1.899.633-3.278.545-2.755 1.489-6.566 1.431-10.865 0-2.141-.305-4.17-.443-6.033-.137-1.863-.297-3.52-.416-4.926-.12-1.407-.15-2.549-.129-3.341.004-.3.027-.6.071-.896a1.13 1.13 0 01.12-.327zm-14.211 12.244c-.104.468-.233.93-.386 1.384a26.583 26.583 0 00-.717 3.39 27.337 27.337 0 00-.253 3.44 13.7 13.7 0 010 1.433 1.179 1.179 0 01-.07-.381 12.786 12.786 0 01-.08-1.052 19.924 19.924 0 01.19-3.471c.161-1.15.425-2.284.789-3.386.141-.421.265-.757.367-.985.035-.131.09-.256.16-.372zm-8.253 7.707c0 .068-.04.117-.084.117-.044 0-.084-.049-.084-.117 0-.067.035-.116.084-.116s.084.054.084.116zm16.24 46.421a13.16 13.16 0 011.617.229 68.74 68.74 0 003.89.515c1.523.156 2.91.237 3.915.282.543.002 1.086.035 1.626.098a1.614 1.614 0 01-.443.05h-1.192a41.572 41.572 0 01-7.832-.802 23.358 23.358 0 01-1.165-.26 1.942 1.942 0 01-.416-.112z" fill="#455A64"/><path d="M58.08 102.482c.098-.067 5.812 0 5.812 0s4.284-21.09 4.789-27.552c.505-6.463-10.428 2.996-10.428 2.996l-.173 24.556z" fill="#6AB058"/><path d="M66.696 95.469c.195.976.492 1.85.368 2.839a2.26 2.26 0 01-.222.824 2.634 2.634 0 01-.709.748l-1.935 1.563c-.208.17-.51.34-.718.17a.575.575 0 01-.12-.542 4.367 4.367 0 01.554-1.563l.687-2.929-.709-1.514 2.804.404z" fill="#FFBEA9"/><path d="M50.355 28.998s5.555 0 8.82 7.336c0 0 9.843 17.354 10.073 24.757 0 0-.115 10.99-1.945 17.467-1.83 6.475-7.088 23.646-7.088 23.646s-16.474-1.433-19.792-3.86C37.105 95.916 29.79 96.26 29.79 96.26s4.439-13.767 9.932-22.097c5.493-8.33 3.318-23.136 3.318-23.136s-1.537-21.967 7.314-22.03z" fill="#6AB058"/><path d="M58.253 102.011h1.041c.673 0 1.661-.04 2.902-.161l-.054.045c1.143-4.066 3.03-11.008 4.63-19.011a123.53 123.53 0 002.303-16.495c.115-2.127.115-3.856.08-5.047-.031-.578-.049-1.04-.067-1.37v-.359a.315.315 0 010-.12v.12c0 .08 0 .21.036.354.022.331.062.793.106 1.375.067 1.191.089 2.924 0 5.056a114.794 114.794 0 01-2.215 16.53c-1.599 8.013-3.544 14.954-4.73 19.003v.045h-.045a26.34 26.34 0 01-2.92.098c-.336 0-.598-.027-.77-.045-.1.007-.2.001-.297-.018z" fill="#263238"/><path d="M62.173 32.15c.031-.622 6.1 8.998 7.686 19.15.576 3.651-.753 8.215-.753 8.215L57.695 33.669s4.177 4.143 4.478-1.518z" fill="#E0E0E0"/><path d="M53.836 30.068c.485.35.93.753 1.33 1.2a6.779 6.779 0 011.151 1.76c.346.749.642 1.635 1.006 2.594a8.38 8.38 0 00.478 2.597c.341.944.754 1.858 1.236 2.737 1.014 1.854 2.109 3.883 3.163 6.046a124.687 124.687 0 015.316 12.495c.593 1.635 1.028 2.974 1.329 3.896l.323 1.07c.043.125.077.252.102.381a2.667 2.667 0 01-.146-.363c-.089-.264-.213-.613-.368-1.056-.323-.919-.78-2.24-1.395-3.87a138.211 138.211 0 00-5.37-12.45c-1.053-2.159-2.139-4.183-3.144-6.046a18.615 18.615 0 01-1.232-2.773 8.595 8.595 0 01-.47-2.633v.027c-.354-.963-.642-1.85-.97-2.593a6.728 6.728 0 00-1.085-1.738c-.29-.332-.597-.648-.921-.945l-.248-.237a.59.59 0 01-.085-.099zm7.682 38.507s.093 0 .239.058c.205.114.368.291.465.507a1.201 1.201 0 010 1.03c-.115.188-.28.34-.477.438a1.158 1.158 0 01-1.232-.124 1.18 1.18 0 01-.382-.525 1.214 1.214 0 01.204-1.008 1.07 1.07 0 01.553-.403.39.39 0 01.253 0 1.3 1.3 0 00-.669.506 1.042 1.042 0 00-.137.851.98.98 0 00.798.596.96.96 0 00.898-.425 1.055 1.055 0 00.036-.865 1.38 1.38 0 00-.55-.636zM47.236 70.26s-.28-.104-.789-.279a6.664 6.664 0 00-.939-.25 2.868 2.868 0 00-1.258.031 1.993 1.993 0 00-1.156.923 12.249 12.249 0 00-.722 1.657l-1.537 3.892c-.147.371-.293.743-.443 1.088l-.08-.157a13.33 13.33 0 016.556 1.532c.597.316 1.167.68 1.706 1.088.19.139.323.264.443.345.05.04.096.085.137.134a5.94 5.94 0 01-.611-.412 15.415 15.415 0 00-1.724-1.017 13.607 13.607 0 00-6.507-1.437h-.173l.062-.166c.142-.35.288-.716.443-1.093l1.555-3.882c.208-.58.461-1.141.758-1.68a2.36 2.36 0 01.567-.636c.212-.157.45-.274.704-.345.437-.1.891-.1 1.329 0 .324.069.641.166.948.291.252.099.443.189.567.251.124.063.168.112.164.121z" fill="#263238"/><path d="M69.226 65.189a.765.765 0 010-.166l.062-.475.265-1.791c.253-1.572.599-3.776 1.02-6.413.053-1.344.119-2.795.146-4.34a22.683 22.683 0 00-.085-2.374c0-.403-.066-.81-.124-1.222-.057-.412-.11-.82-.19-1.236a30.933 30.933 0 00-2.064-6.718 31.78 31.78 0 00-2.734-5.052 28.732 28.732 0 00-2.37-3.054c-.305-.34-.562-.587-.726-.762a3.049 3.049 0 01-.244-.277c.1.072.193.153.28.241.172.166.442.403.752.735.89.943 1.707 1.956 2.441 3.027a30.31 30.31 0 012.791 5.057 30.1 30.1 0 012.1 6.762c.08.417.15.833.195 1.25.044.416.102.824.12 1.231.061.816.101 1.613.083 2.396-.035 1.55-.11 3.01-.172 4.345-.443 2.633-.829 4.832-1.099 6.4-.133.756-.244 1.343-.323 1.79a7.171 7.171 0 01-.093.449.811.811 0 01-.031.197z" fill="#263238"/><path d="M60.928 91.899c.23-.103 4.47 1.617 5.316 2.714a2.247 2.247 0 01.55 1.68s-5.414-2.343-6.521-2.186c-1.108.157-1.87 1.791-2.556.73-.687-1.062-.793-1.174-.793-1.174l4.004-1.764z" fill="#FFBEA9"/><path d="M50.297 30.068c1.555 0 5.55 3.06 5.759 10.928.217 7.654-.28 21.497-.28 21.497l6.304 28.663c.182.277-6.126 3.65-8.908 2.929 0 0-7.256-25.877-7.881-29.07-.625-3.194-1.954-18.054-1.435-21.404.518-3.35-.288-13.53 6.44-13.543z" fill="#6AB058"/><path d="M53.938 90.981a.632.632 0 00-.864.134.65.65 0 00.08.88.634.634 0 00.874-.027.649.649 0 00.026-.884" fill="#E0E0E0"/><path d="M54.044 91.084s.063 0 .12.103a.641.641 0 01.089.448.77.77 0 01-.364.564.741.741 0 01-.806-.123.758.758 0 01-.217-.795.738.738 0 01.51-.448.645.645 0 01.443.036c.093.05.124.099.115.108-.01.008-.208-.1-.505 0a.583.583 0 00-.36.349.56.56 0 00.169.549.547.547 0 00.558.105.628.628 0 00.302-.403c.08-.296-.08-.475-.053-.493z" fill="#263238"/><path d="M53.323 89.288a.535.535 0 00-.716.278.552.552 0 00.279.722.535.535 0 00.538-.064.573.573 0 00.099-.752.569.569 0 00-.2-.184z" fill="#E0E0E0"/><path d="M53.322 89.288s.058 0 .137.035a.55.55 0 01.226.323.651.651 0 01-.115.587.65.65 0 01-1.107-.493.657.657 0 01.354-.484.54.54 0 01.386-.049c.088.027.124.067.12.08a.83.83 0 00-.444.113.498.498 0 00-.221.362.416.416 0 00.27.394.4.4 0 00.443-.067.493.493 0 00.115-.412c.005-.273-.181-.358-.164-.39z" fill="#263238"/><path d="M52.884 87.564a.535.535 0 00-.71.283.552.552 0 00.28.719.534.534 0 00.536-.062.578.578 0 00.095-.756.574.574 0 00-.201-.184z" fill="#E0E0E0"/><path d="M52.884 87.564s.062 0 .142.036c.11.076.19.19.22.322a.656.656 0 01-.11.592.648.648 0 01-1.107-.493.652.652 0 01.35-.484.544.544 0 01.385-.049c.093.027.129.067.12.076-.01.01-.2-.04-.421.117a.512.512 0 00-.226.362.42.42 0 00.27.39.399.399 0 00.47-.063.507.507 0 00.11-.412c-.035-.273-.221-.362-.203-.394z" fill="#263238"/><path d="M43.944 42.868v1.048c0 .69.027 1.706.089 3.014.12 2.62.372 6.413.744 11.11.091 1.174.192 2.404.301 3.691.053.64.111 1.294.164 1.962 0 .17.031.336.044.506l.023.25.053.247c.066.322.155.658.239.994.678 2.687 1.462 5.563 2.281 8.59 1.662 6.05 3.491 12.724 5.422 19.764l-.101-.085a9.79 9.79 0 003.326-.31 17.465 17.465 0 005.502-2.597l-.044.117c-2.352-10.727-4.492-20.48-6.202-28.264v-.023c.262-6.31.479-11.456.625-15.03.084-1.791.146-3.166.186-4.116.027-.447.044-.824.058-1.074.013-.251.026-.363.026-.363v.367c0 .246 0 .605-.031 1.07-.031.954-.075 2.343-.137 4.12-.129 3.584-.32 8.72-.55 15.035v-.022c1.72 7.779 3.877 17.529 6.251 28.25v.076l-.062.04a17.584 17.584 0 01-5.582 2.639 9.885 9.885 0 01-3.406.318h-.076v-.076c-1.927-7.045-3.747-13.718-5.4-19.773-.815-3.028-1.59-5.898-2.263-8.595-.084-.34-.169-.671-.24-1.016l-.053-.255v-.256l-.04-.501c-.053-.668-.11-1.344-.159-1.966-.102-1.286-.195-2.517-.288-3.69-.35-4.703-.576-8.51-.669-11.12a56.979 56.979 0 01-.049-3.02c0-.344.027-.604.032-.783.004-.18-.014-.273-.014-.273zm82.485 144.961c2.833 0 5.129-2.322 5.129-5.186s-2.296-5.186-5.129-5.186c-2.833 0-5.13 2.322-5.13 5.186s2.297 5.186 5.13 5.186z" fill="#263238"/><path d="M126.429 185.469c1.543 0 2.795-1.265 2.795-2.826 0-1.56-1.252-2.826-2.795-2.826-1.544 0-2.796 1.266-2.796 2.826 0 1.561 1.252 2.826 2.796 2.826z" fill="#E0E0E0"/><path d="M135.292 174.215v3.462l-7.973 6.485a3.03 3.03 0 01-1.223.528c-.594.067-1.147-.273-1.147-1.16 0-1.688 2.077-6.601 2.077-6.601h1.666v-2.714h6.6z" fill="#455A64"/><path d="M125.981 183.091c-.022 0-.102-.201.129-.421a.513.513 0 01.505-.103.55.55 0 01.373.527.549.549 0 01-.373.526.515.515 0 01-.505-.103c-.231-.22-.151-.448-.129-.426.022.023.044.18.226.296.05.032.106.051.165.057a.377.377 0 00.172-.026.35.35 0 00-.172-.674.373.373 0 00-.165.056c-.182.117-.19.3-.226.291zm1.059-6.166a5.562 5.562 0 011.209-.076c.749 0 1.772 0 2.919.022l2.915.094c.405-.005.81.025 1.209.09a6.038 6.038 0 01-1.209.076c-.749 0-1.772 0-2.919-.027l-2.915-.09a7.086 7.086 0 01-1.209-.089zm-62.83 10.954c2.834 0 5.13-2.322 5.13-5.186s-2.296-5.186-5.13-5.186c-2.832 0-5.129 2.322-5.129 5.186s2.297 5.186 5.13 5.186z" fill="#263238"/><path d="M64.21 185.519c1.544 0 2.796-1.265 2.796-2.826 0-1.561-1.252-2.826-2.795-2.826-1.544 0-2.795 1.265-2.795 2.826 0 1.561 1.251 2.826 2.795 2.826z" fill="#E0E0E0"/><path d="M73.093 173.274v4.452l-7.974 6.481a3.033 3.033 0 01-1.223.532c-.593.068-1.147-.273-1.147-1.159 0-1.689 2.078-6.606 2.078-6.606h1.665v-3.7h6.6z" fill="#455A64"/><path d="M63.763 183.146c-.022 0-.102-.202.124-.426a.528.528 0 01.51-.098.552.552 0 01.27.848.562.562 0 01-.27.204.52.52 0 01-.51-.103c-.226-.219-.146-.448-.124-.425.022.022.04.174.226.295a.374.374 0 00.337.031.365.365 0 00.217-.326.35.35 0 00-.39-.349.372.372 0 00-.164.057c-.2.117-.2.318-.226.292zm1.059-6.172c.4-.066.805-.09 1.21-.072.748 0 1.772 0 2.919.023l2.915.094a6.4 6.4 0 011.205.09c-.4.066-.805.091-1.21.076-.744 0-1.772 0-2.915-.027l-2.914-.094a5.978 5.978 0 01-1.21-.09z" fill="#263238"/><path d="M88.624 150.031a3.563 3.563 0 01-2.087-.677 3.633 3.633 0 01-1.31-1.777l-14.97-44.409 79.424 12.988-1.825 27.104a3.382 3.382 0 01-.967 2.157 3.313 3.313 0 01-2.134.978l-55.905 3.632-.226.004zM71.57 104.314l14.499 42.972a2.738 2.738 0 001.056 1.389c.493.333 1.08.493 1.673.456l55.905-3.632a2.43 2.43 0 001.557-.712 2.48 2.48 0 00.711-1.572l1.772-26.289-77.173-12.612z" fill="#455A64"/><path d="M73.86 113.621l-3.323-2.562-3.278-9.647-2.88-1.688.448-.775 3.158 1.854 3.305 9.71 3.105 2.396-.536.712z" fill="#455A64"/><path d="M73.744 111.51l-.12.887 75.131 10.419.12-.888-75.131-10.418zm4.375 13.084l-.053.894 70.551 4.225.052-.894-70.55-4.225zm69.665 11.254l-65.313 1.741.023.895 65.314-1.74-.024-.896zm-.383 6.765l-62.074 3.036.043.895 62.074-3.036-.043-.895z" fill="#455A64"/><path d="M141.928 145.552l-.886-.076a536.3 536.3 0 001.653-30.185l.886.022a539.414 539.414 0 01-1.653 30.239zm-5.098.538h-.886c0-.211.15-21.242.416-31.211l.886.022c-.266 9.956-.412 30.978-.416 31.189zm-6.047-32.861l-.886.024.859 32.942.886-.024-.859-32.942zm-7.368-.212l-.886.063 2.401 34.673.886-.063-2.401-34.673zm-8.847-2.437l-.878.119 4.88 36.73.878-.119-4.88-36.73zm-9.712-1.828l-.871.164 7.22 39.08.871-.164-7.22-39.08zm-11.483-1.526l-.86.22 10.289 41.047.859-.22-10.288-41.047zm-14.381-2.381l-.843.277 14.84 46.147.843-.277-14.84-46.147z" fill="#455A64"/><path d="M138.004 175.017l-72.442-1.196a1.088 1.088 0 01-.78-.344 1.115 1.115 0 01-.305-.802c.03-1.317.217-7.936.722-9.405.181-.52.478-1.389 12.51-7.35 1.191-.591 11.708-5.786 13.156-5.867 1.449-.08 14.862-.658 15.43-.685a1.101 1.101 0 011.053.646 1.133 1.133 0 01-.187 1.231 1.12 1.12 0 01-.769.363c-.142 0-13.68.586-15.363.68-1.9.408-21.706 10.028-23.784 11.877-.217.954-.42 4.246-.523 7.426l71.321 1.178c.294 0 .576.118.784.328a1.127 1.127 0 010 1.583c-.208.21-.49.328-.784.328l-.039.009z" fill="#455A64"/><path d="M106.06 173.149l-9.2-.229c-1.737-.085-3.035-.609-3.873-1.549-.837-.941-1.147-2.119-1.058-3.65a8.424 8.424 0 011.329-4.004l8.899-13.306.736.502-8.896 13.297a7.51 7.51 0 00-1.2 3.56c-.075 1.285.208 2.297.833 3.005.624.708 1.772 1.178 3.247 1.25l9.187.228-.004.896zm-2.552-22.316c-7.415-13.503-26.871-48.789-27.846-49.914-.59-.533-5.316-2.239-8.178-3.157l.275-.85c.77.254 7.566 2.498 8.514 3.358.948.86 23.479 41.901 28.006 50.128l-.771.435z" fill="#455A64"/><path d="M69.549 97.605l-4.873 2.996s-5.635-2.58-6.104-3.188c-.47-.61-.607-2.88 1.329-3.305 1.935-.426 9.648 3.497 9.648 3.497z" fill="#455A64"/><path d="M60.144 96.118s-.035-.085 0-.237a.924.924 0 01.328-.57.988.988 0 01.961-.17c.2.072.374.204.496.378a1.042 1.042 0 01-.496 1.575.981.981 0 01-.961-.17.924.924 0 01-.328-.569c-.022-.152 0-.237 0-.237l.071.22c.068.18.186.335.341.447a.833.833 0 100-1.352.962.962 0 00-.341.448c-.044.156-.053.237-.07.237zm5.418 77.506c0-.062 16.187.148 36.152.471 19.966.322 36.152.636 36.152.703 0 .067-16.186-.148-36.156-.471-19.97-.322-36.148-.635-36.148-.703zM177 187.883c0 .063-39.488.116-88.186.116-48.697 0-88.19-.053-88.19-.116s39.48-.116 88.19-.116c48.711 0 88.186.049 88.186.116z" fill="#263238"/></g><defs><clipPath id="clip0_2668_6914"><path fill="#fff" d="M0 0h177v188H0z"/></clipPath></defs></svg>