<svg width="141" height="173" fill="none" xmlns="http://www.w3.org/2000/svg"><path fill="#D9D9D9" d="M7.869 5.942h132.984v166.387H7.869z"/><g clip-path="url(#clip0_2717_6837)"><path d="M133.18 0H.197v166.387H133.18V0z" fill="#E8E8E8"/><path d="M57.938 50.686H10.904v-40.12h47.034v40.12zm-42.635-3.947h38.24V14.513h-38.24V46.74z" fill="#fff"/><path d="M37.099 29.564L63.083 6.251l7.158 6.423-25.984 23.314-7.158 6.423-7.158-6.423-9.917-8.897 7.159-6.424 9.916 8.897z" fill="#6AB058"/><path d="M120.892 19.306H70.357c-.064 0-.116.046-.116.104v6.188c0 .057.052.104.116.104h50.535c.064 0 .116-.047.116-.105V19.41c0-.058-.052-.104-.116-.104zm0 11.319H70.357c-.064 0-.116.047-.116.104v6.188c0 .057.052.104.116.104h50.535c.064 0 .116-.047.116-.104v-6.188c0-.057-.052-.104-.116-.104zm-22.155 11.32H70.328c-.048 0-.087.035-.087.079v6.239c0 .043.04.078.087.078h28.41c.048 0 .087-.035.087-.078v-6.24c0-.043-.04-.078-.088-.078zm-40.799 61.011H10.904V62.832h47.034v40.124zm-42.635-3.947h38.24V66.783h-38.24V99.01zm105.589-27.432H70.357c-.064 0-.116.047-.116.104v6.188c0 .057.052.104.116.104h50.535c.064 0 .116-.047.116-.104V71.68c0-.057-.052-.104-.116-.104zm0 11.318H70.357c-.064 0-.116.047-.116.105v6.187c0 .058.052.104.116.104h50.535c.064 0 .116-.046.116-.104V83c0-.057-.052-.103-.116-.103zm-22.155 11.32H70.328c-.048 0-.087.035-.087.078v6.239c0 .044.04.079.087.079h28.41c.048 0 .087-.035.087-.079v-6.239c0-.043-.04-.078-.088-.078zm-40.798 61.012H10.904v-40.121H57.94v40.121zm-42.636-3.948h38.24v-32.226h-38.24v32.226zm105.589-27.432H70.357c-.064 0-.116.046-.116.104v6.187c0 .058.052.104.116.104h50.535c.064 0 .116-.046.116-.104v-6.187c0-.058-.052-.104-.116-.104zm0 11.319H70.357c-.064 0-.116.047-.116.104v6.188c0 .057.052.104.116.104h50.535c.064 0 .116-.047.116-.104v-6.188c0-.057-.052-.104-.116-.104zm-22.155 11.32H70.328c-.048 0-.087.035-.087.079v6.239c0 .043.04.078.087.078h28.41c.048 0 .087-.035.087-.078v-6.239c0-.044-.04-.079-.088-.079z" fill="#fff"/></g><defs><clipPath id="clip0_2717_6837"><path fill="#fff" transform="translate(.197)" d="M0 0h132.984v166.387H0z"/></clipPath></defs></svg>