<svg width="177" height="188" viewBox="0 0 177 188" fill="none" xmlns="http://www.w3.org/2000/svg">
<g clip-path="url(#clip0_2668_6914)">
<path d="M85.7932 64.8711L86.9804 65.525L85.7932 66.1789L85.1465 67.3791L84.4997 66.1789L83.3125 65.525L84.4997 64.8711L85.1465 63.6709L85.7932 64.8711Z" fill="#EBEBEB"/>
<path d="M165.442 164.764C165.962 165.014 166.426 165.367 166.806 165.803C167.187 166.239 167.476 166.748 167.657 167.299C168.015 168.409 168.117 169.587 167.954 170.743C167.706 172.983 166.448 175.222 165.097 177.013C163.241 175.374 162.811 172.512 162.683 171.048C162.483 168.732 163.511 164.42 165.442 164.778" fill="#6AB058"/>
<path d="M167.258 180.695C167.131 180.057 167.173 179.397 167.38 178.781C167.587 178.165 167.952 177.615 168.437 177.188C168.929 176.769 169.499 176.453 170.114 176.259C170.728 176.065 171.375 175.997 172.016 176.059C172.313 176.056 172.607 176.118 172.878 176.241C173.149 176.364 173.39 176.545 173.584 176.772C173.725 177.014 173.799 177.29 173.799 177.571C173.799 177.852 173.725 178.128 173.584 178.37C173.304 178.857 172.9 179.259 172.415 179.535C170.802 180.556 169.057 181.246 167.236 180.695" fill="#6AB058"/>
<path d="M164.875 187.538C164.883 187.387 164.905 187.237 164.942 187.09C165 186.767 165.075 186.351 165.168 185.849C165.376 184.47 165.802 183.133 166.43 181.89C167.087 180.65 168.058 179.608 169.243 178.872C169.605 178.656 169.99 178.484 170.391 178.357C170.498 178.321 170.607 178.293 170.718 178.272C170.794 178.272 170.838 178.249 170.838 178.272C170.302 178.453 169.787 178.692 169.301 178.984C168.155 179.734 167.216 180.767 166.572 181.984C165.956 183.205 165.52 184.51 165.279 185.858C165.163 186.378 165.075 186.799 165.004 187.09C164.976 187.243 164.933 187.393 164.875 187.538Z" fill="#263238"/>
<path d="M164.946 168.114C164.953 168.181 164.953 168.249 164.946 168.316C164.946 168.464 164.946 168.652 164.982 168.889C164.982 169.391 165.035 170.112 165.061 171.007C165.119 172.799 165.168 175.266 165.154 177.998C165.141 180.73 165.075 183.202 165.004 184.989C164.968 185.885 164.933 186.606 164.902 187.108C164.902 187.341 164.871 187.533 164.862 187.681C164.868 187.748 164.868 187.815 164.862 187.883C164.853 187.816 164.853 187.748 164.862 187.681C164.862 187.533 164.862 187.341 164.862 187.103C164.862 186.584 164.889 185.867 164.911 184.985C164.955 183.193 165.004 180.726 165.017 177.998C165.03 175.271 165.017 172.799 164.973 171.012C164.973 170.116 164.946 169.413 164.937 168.894V168.316C164.933 168.248 164.936 168.181 164.946 168.114Z" fill="#263238"/>
<path d="M164.043 182.052C163.818 180.699 163.278 179.419 162.467 178.32C161.655 177.22 160.597 176.331 159.378 175.728C158.758 175.428 157.947 175.231 157.438 175.701C156.928 176.172 157.039 177.009 157.291 177.658C157.837 179.006 158.765 180.16 159.959 180.975C161.152 181.789 162.558 182.228 163.998 182.235" fill="#6AB058"/>
<path d="M159.679 177.847C159.817 177.892 159.95 177.951 160.078 178.021C160.23 178.092 160.378 178.173 160.521 178.263C160.716 178.372 160.905 178.491 161.088 178.621C161.313 178.774 161.53 178.939 161.739 179.114C161.98 179.314 162.211 179.526 162.43 179.75C162.934 180.267 163.38 180.84 163.759 181.456C164.127 182.079 164.425 182.741 164.645 183.431C164.733 183.734 164.805 184.04 164.862 184.35C164.914 184.619 164.95 184.891 164.973 185.165C164.995 185.389 165.005 185.615 165.004 185.841C165.013 186.011 165.013 186.181 165.004 186.351C165 186.502 164.984 186.652 164.955 186.799C164.919 186.799 164.982 186.177 164.871 185.191C164.844 184.922 164.801 184.654 164.742 184.39C164.682 184.087 164.607 183.789 164.516 183.494C164.298 182.82 164.008 182.171 163.653 181.559C163.286 180.953 162.857 180.387 162.372 179.871C162.142 179.643 161.929 179.423 161.699 179.235C161.499 179.056 161.289 178.889 161.07 178.733C160.224 178.138 159.666 177.878 159.679 177.847Z" fill="#263238"/>
<path d="M61.6106 30.9014C62.1511 30.9014 68.1713 32.3658 69.8635 35.3799C71.5557 38.394 72.2866 49.438 72.2866 49.438C72.2866 49.438 72.7739 57.2038 71.7196 60.93C70.6653 64.6561 67.2189 82.9778 65.9608 86.695C64.3217 91.4601 62.0049 99.3289 62.0049 99.3289L42.1724 85.0917L61.6106 30.9014Z" fill="#6AB058"/>
<path d="M67.9102 13.6991C67.0552 15.5711 67.3299 17.7611 67.8349 19.7586C68.3399 21.756 69.0575 23.7355 69.0442 25.8001C69.0221 28.8276 68.2602 32.9658 62.1912 31.0086C58.4967 29.8218 61.8944 40.9107 59.8966 44.2741C59.5444 44.9629 59.0576 45.5723 58.4657 46.0655C56.9728 47.1359 54.9218 46.5133 53.2119 45.855C52.667 45.6445 52.0424 45.3489 51.9183 44.7712C51.879 44.468 51.9172 44.1596 52.0291 43.8755C55.0503 33.7421 58.07 23.6071 61.0882 13.4707" fill="#263238"/>
<path d="M57.5884 37.3685C61.0659 36.54 62.1379 34.7889 62.1778 31.6942L62.2398 27.7665C62.2398 27.7665 66.0893 27.565 66.9886 21.7653C67.5585 17.9907 67.7544 14.1679 67.5733 10.354C67.3341 6.86968 63.7902 0.734081 60.3482 1.11028L50.9436 5.74108C50.4413 5.79595 49.9777 6.03951 49.6447 6.42353C49.3116 6.80755 49.1333 7.30403 49.1451 7.81465L49.876 30.2969" fill="#FFBEA9"/>
<path d="M65.3717 14.3715C65.373 14.5649 65.2997 14.7512 65.1673 14.8908C65.035 15.0304 64.8541 15.1124 64.6629 15.1194C64.5694 15.128 64.4752 15.1173 64.3859 15.0881C64.2965 15.0589 64.214 15.0116 64.1432 14.9493C64.0725 14.8869 64.0149 14.8107 63.974 14.7253C63.9331 14.6399 63.9098 14.5469 63.9054 14.4521C63.9018 14.2584 63.9736 14.071 64.1053 13.9303C64.2371 13.7895 64.4182 13.7067 64.6098 13.6997C64.7037 13.6918 64.7983 13.703 64.8879 13.7327C64.9775 13.7624 65.0602 13.81 65.1313 13.8727C65.2023 13.9353 65.2602 14.0118 65.3015 14.0974C65.3428 14.1831 65.3667 14.2763 65.3717 14.3715Z" fill="#263238"/>
<path d="M66.5587 12.9872C66.4923 13.1126 65.8455 12.7768 65.0747 12.9469C64.3039 13.1171 63.8299 13.6814 63.7236 13.5919C63.6173 13.5023 63.7236 13.3455 63.923 13.0858C64.1886 12.757 64.5575 12.5298 64.9683 12.4418C65.3792 12.3538 65.8075 12.4104 66.1822 12.6021C66.4701 12.7678 66.5897 12.9425 66.5587 12.9872Z" fill="#263238"/>
<path d="M57.7745 14.2862C57.7769 14.4803 57.7041 14.6678 57.5717 14.8084C57.4392 14.949 57.2576 15.0316 57.0657 15.0386C56.9721 15.0459 56.878 15.0342 56.7889 15.0042C56.6998 14.9742 56.6176 14.9265 56.547 14.8639C56.4765 14.8013 56.419 14.7251 56.3779 14.6398C56.3369 14.5544 56.3132 14.4616 56.3082 14.3668C56.3057 14.1734 56.3779 13.9866 56.5094 13.8462C56.6409 13.7057 56.8214 13.6226 57.0125 13.6144C57.1063 13.6071 57.2007 13.6188 57.29 13.6487C57.3793 13.6787 57.4619 13.7263 57.5328 13.7888C57.6037 13.8514 57.6616 13.9275 57.7031 14.0129C57.7446 14.0983 57.7688 14.1912 57.7745 14.2862Z" fill="#263238"/>
<path d="M58.718 13.8249C58.594 13.9011 58.1421 13.2785 57.3138 13.0367C56.4854 12.7949 55.7589 13.0367 55.6968 12.9203C55.6658 12.862 55.8165 12.6963 56.1398 12.5709C56.5674 12.4141 57.0336 12.4015 57.4688 12.5351C57.9018 12.66 58.2818 12.9261 58.5497 13.292C58.7446 13.5741 58.78 13.7891 58.718 13.8249Z" fill="#263238"/>
<path d="M61.6726 18.9039C62.0891 18.77 62.5208 18.6902 62.9572 18.6665C63.1566 18.6665 63.3515 18.6038 63.4002 18.465C63.4186 18.2544 63.3722 18.0432 63.2673 17.8604C63.0724 17.3632 62.8731 16.8482 62.6648 16.3063C61.8276 14.0894 61.2251 12.2756 61.3359 12.2398C61.4466 12.204 62.1731 13.973 63.0059 16.1854C63.2097 16.7318 63.4002 17.2513 63.5818 17.7484C63.7101 17.9944 63.7478 18.2785 63.6881 18.55C63.6594 18.6226 63.6145 18.6874 63.5569 18.7395C63.4992 18.7916 63.4304 18.8294 63.3559 18.8501C63.2445 18.88 63.13 18.8966 63.0148 18.8994C62.5695 18.9594 62.1183 18.9609 61.6726 18.9039Z" fill="#263238"/>
<path d="M62.2395 27.8154C59.5388 27.8628 56.878 27.1512 54.5537 25.7598C54.5537 25.7598 56.4807 29.9024 62.2174 29.3426L62.2395 27.8154Z" fill="#E4977C"/>
<path d="M61.5443 20.8473C61.3818 20.5741 61.1611 20.3411 60.8982 20.1653C60.6354 19.9894 60.337 19.8751 60.0248 19.8306C59.8441 19.8123 59.6622 19.8507 59.5037 19.9404C59.3452 20.0301 59.2179 20.1669 59.1388 20.3322C59.0503 20.5496 59.0154 20.7854 59.037 21.0195C59.0586 21.2535 59.1361 21.4787 59.2629 21.6758C59.3851 21.8805 59.5638 22.0447 59.7771 22.1482C59.9904 22.2516 60.2289 22.2898 60.4634 22.258C60.8504 22.1457 61.1958 21.9196 61.4557 21.6086C61.5439 21.5306 61.6122 21.4323 61.655 21.322C61.6765 21.2516 61.682 21.1772 61.6713 21.1044C61.6606 21.0315 61.6338 20.962 61.593 20.901" fill="#E4977C"/>
<path d="M59.3605 19.463C59.4889 19.463 59.4934 20.3228 60.2464 20.9364C60.9995 21.55 61.8988 21.4559 61.9076 21.5768C61.9076 21.6306 61.7039 21.7425 61.3185 21.756C60.8145 21.7642 60.3237 21.593 59.9319 21.2723C59.5587 20.963 59.3176 20.5204 59.2586 20.0362C59.1921 19.6735 59.2852 19.4585 59.3605 19.463Z" fill="#263238"/>
<path d="M59.4089 10.1348C59.3115 10.3409 58.5229 10.1617 57.6015 10.1796C56.6801 10.1975 55.8916 10.3812 55.7897 10.1796C55.741 10.0811 55.8916 9.88852 56.2327 9.73177C56.6605 9.51604 57.131 9.40114 57.609 9.39571C58.0871 9.39028 58.5601 9.49446 58.9925 9.70042C59.2982 9.85269 59.4532 10.0318 59.4089 10.1348Z" fill="#263238"/>
<path d="M66.8026 11.2455C66.6298 11.4291 65.9521 11.2455 65.137 11.2455C64.3219 11.2455 63.6352 11.3664 63.4758 11.1739C63.4049 11.0798 63.5156 10.9007 63.8169 10.726C64.2346 10.5121 64.7002 10.4117 65.168 10.4349C65.6352 10.4371 66.0936 10.5638 66.4969 10.8021C66.7849 10.9679 66.8912 11.156 66.8026 11.2455Z" fill="#263238"/>
<path d="M36.8832 32.5858C38.1369 30.5391 42.1725 25.6396 43.6033 22.2852C44.6222 19.8802 45.3753 11.4292 47.5681 7.08055C49.7608 2.73189 52.3036 0.958387 54.8153 0.273171C55.7673 -0.0163629 56.7773 -0.0518033 57.7469 0.170299C58.7164 0.392401 59.6126 0.864482 60.3482 1.5406C61.4823 2.57066 61.8721 5.57128 61.8721 5.57128C61.8721 5.57128 55.8076 6.91484 53.7655 10.426C51.422 14.4567 50.855 16.4631 50.855 16.4631L50.0931 18.6576C50.0931 18.6576 50.8063 22.9077 51.0677 25.0081C51.329 27.1086 50.9082 29.0388 49.1982 29.9345L45.7607 32.3932C45.7607 32.3932 47.6256 52.6765 47.3997 52.8467C46.8903 53.2453 42.5845 52.363 38.6862 51.4628C37.9331 51.2882 37.5211 44.118 37.5211 44.118L36.3826 50.8358L33.4678 50.1596C33.4678 50.1596 34.3316 36.7598 36.8832 32.5858Z" fill="#263238"/>
<path d="M61.757 5.58431C62.8737 5.51426 63.9807 5.831 64.8955 6.48229C65.8103 7.13359 66.4783 8.08057 66.7894 9.16714C67.3697 10.9586 67.8127 16.1268 67.8127 16.1268C67.8127 16.1268 68.3177 12.0244 68.1316 9.67769C67.9455 7.33094 66.8026 4.37063 65.0085 2.73148C63.2144 1.09234 61.8279 0.389207 58.7358 0.581784C59.5419 0.985852 60.236 1.58604 60.7559 2.32841C61.1545 2.92406 61.2476 3.354 61.757 5.58431Z" fill="#263238"/>
<path d="M50.8949 16.754C50.8854 16.4563 50.8012 16.166 50.6502 15.9102C50.4991 15.6545 50.2862 15.4418 50.0315 15.2922C49.7767 15.1426 49.4885 15.061 49.1939 15.055C48.8994 15.0491 48.6081 15.119 48.3477 15.2582C47.7452 15.6075 47.2845 16.3196 47.3377 17.6811C47.4883 21.3132 51.0632 20.413 51.0676 20.31C51.0721 20.207 50.9702 18.2543 50.8949 16.754Z" fill="#FFBEA9"/>
<path d="M49.9113 18.9792C49.9113 18.9792 49.8492 19.024 49.7473 19.0777C49.6009 19.1497 49.4324 19.1609 49.2778 19.1091C48.8924 18.9837 48.5513 18.388 48.507 17.7342C48.487 17.429 48.5339 17.1232 48.6443 16.8385C48.673 16.7246 48.7282 16.6192 48.8052 16.5312C48.8823 16.4432 48.979 16.375 49.0873 16.3324C49.1583 16.31 49.2348 16.3135 49.3035 16.3421C49.3723 16.3707 49.429 16.4227 49.4638 16.4891C49.517 16.5921 49.4948 16.6638 49.5126 16.6683C49.5303 16.6728 49.5879 16.6056 49.5524 16.4578C49.5293 16.3678 49.4761 16.2887 49.4018 16.2339C49.3519 16.1972 49.295 16.1716 49.2348 16.1585C49.1745 16.1454 49.1122 16.1451 49.0519 16.1577C48.906 16.1943 48.7718 16.2677 48.6617 16.3711C48.5517 16.4745 48.4695 16.6045 48.4228 16.7489C48.2805 17.069 48.2196 17.42 48.2456 17.77C48.2988 18.5 48.6886 19.1673 49.2246 19.2972C49.3217 19.3219 49.4231 19.3243 49.5212 19.3041C49.6194 19.284 49.7118 19.2418 49.7916 19.1807C49.9068 19.0688 49.9245 18.9837 49.9113 18.9792Z" fill="#E4977C"/>
<path d="M49.0165 4.98828C46.7819 8.1368 45.2687 11.7488 44.5866 15.5621C44.1436 17.9492 44.024 20.5333 42.5887 22.477C41.8357 23.5026 40.7636 24.2908 40.2055 25.4328C39.603 26.6823 39.6916 28.2005 38.9873 29.3918C38.2165 30.6861 36.6793 31.2997 35.6781 32.4193C33.791 34.5332 34.2074 37.7936 33.4366 40.5299C32.9349 42.2795 31.9295 43.8386 30.5484 45.0085C30.0788 45.4026 29.5029 45.9042 29.6624 46.5177C29.7373 46.6901 29.8457 46.8456 29.9811 46.9748C30.1166 47.1041 30.2763 47.2045 30.4509 47.2701C31.5362 47.83 32.5418 49.9573 33.7423 50.2036C33.9904 43.6739 37.1223 35.832 40.5244 30.2741C42.4647 27.0988 44.6043 23.9325 45.3707 20.2825C45.9156 17.9133 45.7915 15.4054 46.0706 12.9869C46.3497 10.5685 47.0762 8.00234 48.9013 6.38558" fill="#263238"/>
<path d="M47.9446 21.2995C47.8959 21.3533 47.5681 21.201 47.1384 20.7128C46.5403 19.9919 46.1768 19.102 46.0974 18.1646C46.0376 17.5027 46.1176 16.8356 46.3321 16.2074C46.5868 15.5062 46.9617 14.8559 47.4396 14.2861C47.943 13.6822 48.4925 13.1192 49.0831 12.6022C49.6767 12.0648 50.3235 11.5408 51.0057 11.0347C52.2936 10.0854 53.667 9.26072 55.1077 8.57154C56.4367 7.93558 57.6726 7.52804 58.6206 7.06675C59.3741 6.72852 60.0718 6.2754 60.6894 5.72319C61.1324 5.32012 61.3228 5.04693 61.4026 5.09171C61.4823 5.1365 61.4026 5.48135 61.0305 6.01877C60.4898 6.75509 59.7995 7.36591 59.006 7.81018C58.0403 8.39687 56.8221 8.89847 55.5817 9.55233C54.2251 10.2661 52.9235 11.082 51.6879 11.9931C51.0263 12.4828 50.4047 12.9784 49.8229 13.48C49.2643 13.9484 48.7388 14.4557 48.2503 14.9982C47.8271 15.4627 47.4815 15.9936 47.227 16.5702C47.0213 17.0699 46.9144 17.6054 46.9125 18.1466C46.9164 18.9592 47.1204 19.758 47.5061 20.471C47.7851 20.9681 48.0022 21.2324 47.9446 21.2995Z" fill="#263238"/>
<path d="M49.4021 21.4604C49.4021 21.4604 49.3401 21.438 49.2249 21.3753C49.0591 21.2875 48.9019 21.184 48.7554 21.0663C48.2116 20.628 47.7776 20.0665 47.4884 19.4271C47.039 18.4725 46.931 17.3899 47.1828 16.3638C47.5655 15.1376 48.3184 14.0633 49.3357 13.2915C50.3111 12.509 51.3334 11.788 52.3967 11.1329C53.3669 10.5148 54.2617 9.99533 55.0236 9.57883C55.7856 9.16233 56.4146 8.84883 56.8532 8.63834L57.3582 8.40545C57.4778 8.35619 57.5398 8.3338 57.5442 8.34275C57.3362 8.4835 57.1186 8.60921 56.893 8.71895C56.4501 8.95183 55.852 9.28772 55.1211 9.72214C54.3902 10.1566 53.4865 10.6895 52.5252 11.312C51.4786 11.9755 50.4686 12.6961 49.4996 13.4707C48.5172 14.2138 47.7842 15.244 47.3998 16.422C47.1535 17.4021 47.2425 18.4375 47.6523 19.36C47.9176 19.9881 48.3188 20.5482 48.8262 20.9991C49.1718 21.3126 49.4154 21.438 49.4021 21.4604Z" fill="#455A64"/>
<path d="M56.5342 0.0396835C56.9283 -0.0392481 57.3359 -0.0130079 57.717 0.115819C58.6479 0.362404 59.5103 0.8221 60.2376 1.45938C60.9665 2.10925 61.4787 2.97123 61.7038 3.92705C61.7761 4.21996 61.8119 4.52087 61.8102 4.82276C61.8239 4.92945 61.8148 5.03788 61.7836 5.14074C61.7393 5.14074 61.7437 4.69288 61.5444 3.98975C61.2857 3.08871 60.7805 2.27989 60.0869 1.65644C59.3805 1.04782 58.5592 0.590713 57.6727 0.312874C57.2986 0.199932 56.9185 0.108719 56.5342 0.0396835Z" fill="#455A64"/>
<path d="M47.4351 19.8441C47.4351 19.8441 47.2668 20.0143 47.0187 20.3547C46.671 20.8362 46.4431 21.3954 46.3543 21.9849C46.2404 22.8604 46.4554 23.7473 46.9567 24.4704C47.2448 24.9173 47.6464 25.2778 48.1194 25.5141C48.5924 25.7505 49.1195 25.854 49.6456 25.814C50.1833 25.7539 50.6848 25.5107 51.0676 25.1243C51.4118 24.7483 51.6464 24.2832 51.7454 23.7808C51.947 22.9236 51.8693 22.0235 51.5239 21.2145C51.2793 20.6729 50.8432 20.2432 50.3013 20.0098C50.0975 19.9348 49.8867 19.8808 49.6722 19.8486C49.6722 19.8486 49.7342 19.8486 49.845 19.8486C50.0109 19.8573 50.1749 19.889 50.3323 19.9426C50.914 20.158 51.3904 20.5931 51.6612 21.1563C52.0462 21.9959 52.1459 22.9406 51.9448 23.8435C51.8425 24.387 51.5924 24.891 51.2227 25.299C50.8038 25.7248 50.2537 25.9934 49.6634 26.0603C49.0768 26.1236 48.485 26.0049 47.9667 25.72C47.4885 25.4577 47.0798 25.0829 46.7751 24.6272C46.2554 23.8586 46.0491 22.9169 46.1992 21.9983C46.3005 21.3869 46.5604 20.8136 46.9523 20.3368C47.0572 20.209 47.1728 20.0906 47.2978 19.983C47.3997 19.8755 47.4263 19.8396 47.4351 19.8441Z" fill="#E0E0E0"/>
<path d="M33.3524 177.717L35.873 166.668L27.0044 165.168V173.243L29.4718 176.92L33.3524 177.717Z" fill="#FFBEA9"/>
<path d="M34.1718 177.184L33.875 177.663C33.875 177.663 39.8376 186.069 38.9561 187.65L23.1016 177.349L26.7119 172.154C27.5256 173.485 28.613 174.622 29.9002 175.49C31.1874 176.358 32.6443 176.936 34.1718 177.184Z" fill="#6AB058"/>
<g opacity="0.6">
<path d="M27.2306 174.9C27.0494 174.849 26.856 174.866 26.6865 174.948C26.517 175.031 26.3829 175.173 26.3092 175.348C26.2514 175.531 26.265 175.729 26.3474 175.903C26.4298 176.076 26.5746 176.211 26.7522 176.279C26.9456 176.335 27.1524 176.315 27.3324 176.225C27.5125 176.135 27.653 175.98 27.7267 175.791C27.7684 175.594 27.7332 175.389 27.6283 175.218C27.5234 175.046 27.3571 174.923 27.1641 174.873" fill="white"/>
</g>
<g opacity="0.6">
<path d="M23.1016 177.349L23.9875 176.1L38.8631 186.445C38.8631 186.445 39.3725 187.215 38.9738 187.663L23.1016 177.349Z" fill="white"/>
</g>
<path d="M33.902 177.744C33.8489 177.82 33.459 177.605 32.8965 177.609C32.3339 177.614 31.944 177.811 31.8909 177.73C31.8377 177.649 32.2453 177.282 32.9009 177.282C33.5565 177.282 33.9641 177.681 33.902 177.744Z" fill="#263238"/>
<path d="M35.1201 179.521C35.089 179.607 34.6771 179.521 34.1986 179.683C33.7202 179.844 33.4234 180.131 33.3481 180.09C33.2728 180.05 33.5076 179.562 34.1012 179.374C34.6948 179.186 35.1688 179.445 35.1201 179.521Z" fill="#263238"/>
<path d="M34.7832 182.146C34.7034 182.119 34.8452 181.658 35.3147 181.358C35.7843 181.058 36.2583 181.125 36.2494 181.21C36.2406 181.295 35.8729 181.38 35.4875 181.631C35.1021 181.882 34.8673 182.191 34.7832 182.146Z" fill="#263238"/>
<path d="M11.5753 107.838L19.5269 108.917L16.4659 117.78L7.94282 114.82L7.45996 111.542L11.5753 107.838Z" fill="#FFBEA9"/>
<path d="M8.78001 115.42L8.30158 115.214C8.30158 115.214 1.57703 121.999 0 121.421L6.97262 105.187L12.222 107.753C11.1376 108.706 10.2689 109.884 9.67496 111.207C9.08104 112.53 8.7758 113.967 8.78001 115.42Z" fill="#6AB058"/>
<g opacity="0.6">
<path d="M9.80779 108.644C9.82847 108.468 9.78374 108.29 9.68227 108.145C9.58079 108 9.42979 107.899 9.25849 107.86C9.08459 107.832 8.90671 107.873 8.7616 107.974C8.6165 108.075 8.51527 108.228 8.47883 108.402C8.45801 108.59 8.50667 108.779 8.61545 108.933C8.72422 109.087 8.88541 109.194 9.068 109.235C9.41796 109.262 9.84323 108.931 9.81222 108.577" fill="white"/>
</g>
<g opacity="0.6">
<path d="M6.97262 105.187L8.23513 105.8L1.08975 121.139C1.08975 121.139 0.469567 121.721 0 121.421L6.97262 105.187Z" fill="white"/>
</g>
<path d="M8.2307 115.25C8.15539 115.214 8.28829 114.802 8.20412 114.3C8.11996 113.799 7.88074 113.449 7.94276 113.405C8.00478 113.36 8.4079 113.664 8.49649 114.274C8.58509 114.883 8.29715 115.299 8.2307 115.25Z" fill="#263238"/>
<path d="M6.80442 116.647C6.72025 116.647 6.73354 116.231 6.51648 115.814C6.29941 115.398 5.98489 115.169 6.02033 115.093C6.05577 115.017 6.52534 115.16 6.78227 115.68C7.0392 116.199 6.87973 116.679 6.80442 116.647Z" fill="#263238"/>
<path d="M4.3722 116.728C4.3722 116.652 4.81519 116.728 5.16515 117.104C5.51511 117.48 5.51954 117.941 5.4398 117.946C5.36006 117.95 5.2316 117.623 4.94366 117.305C4.65571 116.987 4.34562 116.813 4.3722 116.728Z" fill="#263238"/>
<path d="M55.2672 99.3376C54.5628 99.6914 45.6809 134.302 42.8857 135.73L37.211 163.878C37.3909 164.141 37.5175 164.437 37.5837 164.75C37.6498 165.063 37.6541 165.386 37.5964 165.701C37.4679 166.937 36.9541 167.129 36.9541 167.129C36.9541 167.129 28.7943 168.173 25.5117 165.763C25.5117 165.763 25.8971 163.291 26.092 163.076C26.2869 162.861 27.0577 140.563 29.0512 135.354C31.0446 130.145 33.6893 113.682 33.4323 110.364C33.1754 107.045 32.2717 99.3018 32.4666 96.8296C32.6299 95.1471 32.9745 93.4877 33.4943 91.8809L55.2672 99.3376Z" fill="#263238"/>
<path d="M58.7933 100.735C58.7933 100.735 55.781 121.605 53.1851 125C50.5892 128.395 47.0453 128.484 46.2036 128.628C45.3619 128.771 14.7736 117.337 14.7736 117.337C14.7736 117.337 14.2731 108.913 15.2698 107.655C15.2698 107.655 18.0075 107.78 18.6276 108.662L34.5442 110.902L40.3916 92.9248L58.7933 100.735Z" fill="#263238"/>
<path d="M53.5706 100.699C53.561 100.821 53.5387 100.941 53.5042 101.057L53.2738 102.083C53.0568 102.979 52.7511 104.264 52.3879 105.827L49.3401 118.161C48.1573 122.984 46.9258 127.32 45.712 130.343C45.1184 131.856 44.5691 133.057 44.1616 133.867C43.9622 134.275 43.7895 134.584 43.6743 134.794C43.6207 134.903 43.56 135.007 43.4927 135.108C43.5285 134.991 43.576 134.879 43.6344 134.772C43.7319 134.552 43.8958 134.243 44.0774 133.827C44.4584 133.007 44.9634 131.803 45.557 130.284C46.7265 127.252 47.9314 122.926 49.1009 118.107C50.2704 113.288 51.4089 108.958 52.2018 105.787C52.6094 104.228 52.9372 102.961 53.1719 102.061C53.2871 101.635 53.3802 101.299 53.4466 101.049C53.4781 100.929 53.5196 100.812 53.5706 100.699Z" fill="#455A64"/>
<path d="M32.5199 96.2881C32.5199 96.2881 32.5199 96.3956 32.4844 96.6016C32.449 96.8076 32.4534 97.1121 32.4578 97.4973C32.4578 98.2855 32.542 99.4186 32.6616 100.825C32.7812 102.231 32.9496 103.902 33.1046 105.751C33.2596 107.601 33.5476 109.639 33.5476 111.802C33.6052 116.137 32.6306 119.962 32.0459 122.702L31.3415 125.963L31.151 126.859C31.1324 126.962 31.1057 127.064 31.0713 127.163C31.0722 127.058 31.0841 126.953 31.1067 126.85C31.1422 126.621 31.1909 126.326 31.2529 125.954C31.3902 125.179 31.6029 124.055 31.8864 122.676C32.4313 119.921 33.3748 116.11 33.3172 111.811C33.3172 109.67 33.0116 107.641 32.8742 105.778C32.7369 103.915 32.5774 102.258 32.4578 100.852C32.3382 99.4455 32.3072 98.3034 32.3294 97.5107C32.3326 97.2109 32.3563 96.9116 32.4003 96.615C32.4231 96.5004 32.4634 96.3901 32.5199 96.2881Z" fill="#455A64"/>
<path d="M18.3087 108.532C18.2046 109 18.076 109.462 17.9233 109.916C17.6106 111.029 17.3709 112.162 17.2057 113.306C17.0492 114.446 16.9649 115.595 16.9532 116.746C16.978 117.223 16.978 117.702 16.9532 118.179C16.9087 118.057 16.8848 117.928 16.8823 117.798C16.8513 117.552 16.8203 117.194 16.8025 116.746C16.7648 115.585 16.8285 114.424 16.993 113.275C17.1543 112.125 17.4182 110.991 17.7815 109.889C17.9233 109.468 18.0473 109.132 18.1492 108.904C18.1845 108.773 18.2382 108.648 18.3087 108.532Z" fill="#455A64"/>
<path d="M10.056 116.239C10.056 116.307 10.0162 116.356 9.97186 116.356C9.92756 116.356 9.8877 116.307 9.8877 116.239C9.8877 116.172 9.92313 116.123 9.97186 116.123C10.0206 116.123 10.056 116.177 10.056 116.239Z" fill="#455A64"/>
<path d="M26.2959 162.66C26.8389 162.703 27.3789 162.779 27.9128 162.889C28.9051 163.05 30.2784 163.247 31.8022 163.404C33.3261 163.56 34.7127 163.641 35.7182 163.686C36.2615 163.688 36.8043 163.721 37.344 163.784C37.1993 163.821 37.0502 163.838 36.901 163.834C36.6219 163.834 36.2144 163.834 35.7094 163.834C34.6994 163.834 33.3084 163.771 31.7757 163.619C30.2429 163.466 28.8652 163.233 27.8774 163.032C27.3856 162.933 26.9914 162.844 26.7123 162.772C26.5699 162.75 26.4303 162.713 26.2959 162.66Z" fill="#455A64"/>
<path d="M58.0801 102.482C58.1775 102.415 63.8921 102.482 63.8921 102.482C63.8921 102.482 68.1758 81.3923 68.6808 74.9297C69.1858 68.4672 58.2528 77.9259 58.2528 77.9259L58.0801 102.482Z" fill="#6AB058"/>
<path d="M66.6961 95.4685C66.891 96.4448 67.1878 97.3181 67.0638 98.3079C67.0429 98.5944 66.9677 98.8742 66.8423 99.1319C66.6571 99.426 66.4162 99.6802 66.1335 99.8799L64.1977 101.443C63.9895 101.613 63.6882 101.783 63.48 101.613C63.4163 101.54 63.3719 101.453 63.351 101.358C63.3301 101.263 63.3333 101.164 63.3604 101.071C63.4437 100.519 63.6317 99.9882 63.9142 99.5081L64.6008 96.5792L63.892 95.0654L66.6961 95.4685Z" fill="#FFBEA9"/>
<path d="M50.3545 28.998C50.3545 28.998 55.9095 28.998 59.1744 36.3339C59.1744 36.3339 69.0175 53.6882 69.2479 61.0912C69.2479 61.0912 69.1327 72.0816 67.3032 78.5575C65.4736 85.0335 60.2154 102.204 60.2154 102.204C60.2154 102.204 43.7407 100.771 40.4227 98.3437C37.1047 95.9163 29.791 96.2612 29.791 96.2612C29.791 96.2612 34.2297 82.4942 39.7228 74.1641C45.2158 65.834 43.0408 51.028 43.0408 51.028C43.0408 51.028 41.5036 29.0607 50.3545 28.998Z" fill="#6AB058"/>
<path d="M58.2529 102.011H58.5187C58.6959 102.011 58.9617 102.011 59.294 102.011C59.9673 102.011 60.9551 101.971 62.1955 101.85L62.1424 101.895C63.2853 97.8285 65.1724 90.8867 66.7716 82.8836C67.9094 77.4448 68.6791 71.9338 69.0751 66.3891C69.1903 64.2618 69.1903 62.5331 69.1548 61.3418C69.1238 60.7641 69.1061 60.3028 69.0884 59.9714C69.0884 59.8281 69.0884 59.7072 69.0884 59.6131C69.0806 59.5732 69.0806 59.5321 69.0884 59.4922C69.0884 59.4922 69.0884 59.5325 69.0884 59.6131C69.0884 59.6937 69.0884 59.8236 69.1238 59.9669C69.146 60.2983 69.1859 60.7596 69.2302 61.3418C69.2966 62.5331 69.3188 64.2663 69.2302 66.3981C68.8935 71.9556 68.1532 77.4806 67.0152 82.9284C65.416 90.9405 63.4713 97.8822 62.2841 101.931V101.976H62.2398C61.2692 102.063 60.2947 102.095 59.3205 102.074C58.9839 102.074 58.7225 102.047 58.5497 102.029C58.4504 102.036 58.3507 102.03 58.2529 102.011Z" fill="#263238"/>
<path d="M62.1734 32.1507C62.2044 31.5282 68.2734 41.1481 69.8593 51.3009C70.4351 54.951 69.1062 59.5146 69.1062 59.5146L57.6948 33.6689C57.6948 33.6689 61.8722 37.8116 62.1734 32.1507Z" fill="#E0E0E0"/>
<path d="M53.8364 30.0684C54.3211 30.4186 54.7667 30.8211 55.1654 31.2686C55.6379 31.7908 56.0266 32.3847 56.3172 33.0287C56.6627 33.7766 56.9595 34.6633 57.3227 35.6217C57.344 36.5079 57.5055 37.3848 57.8012 38.2193C58.1422 39.1625 58.5554 40.0774 59.0371 40.9557C60.0515 42.8098 61.1457 44.8386 62.2 47.0017C64.1968 51.0652 65.9715 55.2366 67.5159 59.4968C68.1095 61.1315 68.5436 62.4706 68.8448 63.3932L69.1682 64.4635C69.2113 64.5877 69.2453 64.715 69.2701 64.8442C69.2126 64.7271 69.1637 64.6058 69.1239 64.4814C69.0353 64.2172 68.9113 63.8679 68.7562 63.4245C68.4329 62.5064 67.9766 61.1852 67.3608 59.555C66.1426 56.3036 64.3352 51.8564 61.9918 47.1047C60.9375 44.9461 59.8522 42.9218 58.8466 41.0587C58.3616 40.1703 57.9498 39.2431 57.6151 38.2865C57.3222 37.4392 57.1637 36.5504 57.1455 35.6531V35.68C56.7912 34.7171 56.5032 33.8303 56.1754 33.0869C55.9039 32.4548 55.5379 31.8687 55.0901 31.3492C54.8008 31.017 54.4931 30.7015 54.1687 30.4042L53.9206 30.1669C53.889 30.1373 53.8608 30.1042 53.8364 30.0684Z" fill="#263238"/>
<path d="M61.5176 68.5752C61.5176 68.5752 61.6106 68.5752 61.7568 68.6334C61.9621 68.7466 62.1254 68.9242 62.2219 69.1395C62.2982 69.3003 62.3377 69.4763 62.3377 69.6545C62.3377 69.8328 62.2982 70.0088 62.2219 70.1696C62.1067 70.3578 61.9416 70.5096 61.7453 70.6076C61.549 70.7056 61.3294 70.746 61.1115 70.724C60.8936 70.7021 60.6862 70.6188 60.5129 70.4835C60.3395 70.3483 60.2072 70.1666 60.131 69.9591C60.089 69.7863 60.0855 69.6063 60.1207 69.4321C60.156 69.2578 60.2291 69.0936 60.3348 68.9514C60.4708 68.7594 60.6653 68.6178 60.8885 68.5483C60.9704 68.5203 61.0591 68.5203 61.141 68.5483C60.869 68.6379 60.6338 68.8158 60.4721 69.0544C60.3901 69.1779 60.3353 69.3179 60.3116 69.4647C60.2879 69.6116 60.2958 69.7619 60.3348 69.9053C60.4026 70.068 60.5125 70.2091 60.653 70.3139C60.7935 70.4186 60.9593 70.4831 61.1331 70.5006C61.3068 70.518 61.4819 70.4877 61.64 70.4129C61.7982 70.3381 61.9334 70.2215 62.0314 70.0755C62.0979 69.9423 62.1354 69.7963 62.1415 69.6472C62.1476 69.4981 62.1222 69.3495 62.0669 69.2112C61.9538 68.9465 61.7617 68.7242 61.5176 68.5752Z" fill="#263238"/>
<path d="M47.2358 70.2591C47.2358 70.2591 46.9567 70.1561 46.4473 69.9814C46.1406 69.875 45.8268 69.7912 45.5082 69.7306C45.0916 69.6478 44.6621 69.6585 44.2501 69.762C43.7621 69.9086 43.3483 70.2388 43.0939 70.6846C42.8129 71.218 42.5715 71.7719 42.3718 72.3416L40.8347 76.2335C40.6885 76.6052 40.5423 76.9769 40.3917 77.3218L40.3119 77.165C42.5904 77.1057 44.8464 77.6327 46.8681 78.6967C47.4646 79.0126 48.0349 79.3765 48.5736 79.7849C48.7641 79.9238 48.897 80.0492 49.0166 80.1298C49.0671 80.1694 49.1131 80.2145 49.154 80.2642C48.942 80.1397 48.7378 80.0021 48.5426 79.8521C47.9905 79.4761 47.4149 79.1365 46.8194 78.8355C44.7998 77.8236 42.5649 77.3299 40.3119 77.3979H40.1392L40.2012 77.2322C40.3429 76.8829 40.4891 76.5156 40.6442 76.1394L42.1991 72.2565C42.4069 71.6772 42.6602 71.1156 42.9566 70.5771C43.1059 70.3321 43.298 70.1166 43.5236 69.9411C43.7356 69.7837 43.9743 69.6669 44.2279 69.5963C44.6654 69.4966 45.1194 69.4966 45.5569 69.5963C45.8808 69.6646 46.1981 69.762 46.5049 69.8874C46.7574 69.9859 46.9479 70.0755 47.0719 70.1382C47.1959 70.2009 47.2402 70.2501 47.2358 70.2591Z" fill="#263238"/>
<path d="M69.2256 65.1887C69.2196 65.1337 69.2196 65.0781 69.2256 65.023L69.2876 64.5483C69.3541 64.1004 69.4427 63.5048 69.5534 62.7569C69.8059 61.1849 70.1515 58.9815 70.5723 56.3436C70.6255 55 70.6919 53.549 70.7185 52.0039C70.7319 51.2118 70.7038 50.4194 70.6343 49.6303C70.6343 49.2272 70.5679 48.8197 70.5103 48.4076C70.4527 47.9956 70.3995 47.5881 70.3198 47.1716C69.8887 44.8597 69.196 42.6056 68.2555 40.4538C67.498 38.6894 66.5832 36.9985 65.5223 35.402C64.8012 34.3311 64.0094 33.3106 63.1523 32.3476C62.8466 32.0072 62.5897 31.7609 62.4258 31.5863C62.3391 31.4988 62.2577 31.4061 62.1821 31.3086C62.2816 31.3813 62.375 31.4621 62.4612 31.5504C62.634 31.7161 62.9042 31.9535 63.2143 32.2849C64.1047 33.2282 64.9208 34.2405 65.6552 35.3124C66.7434 36.9036 67.678 38.5968 68.446 40.3687C69.409 42.5306 70.1138 44.8008 70.5457 47.1313C70.6255 47.5478 70.6963 47.9643 70.7406 48.3808C70.7849 48.7973 70.8425 49.2048 70.8603 49.6124C70.9223 50.4275 70.9621 51.2246 70.9444 52.0084C70.909 53.558 70.8337 55.018 70.7717 56.3526C70.3287 58.9859 69.9433 61.1849 69.673 62.7524C69.5401 63.5093 69.4294 64.096 69.3497 64.5438C69.3142 64.7364 69.2832 64.8887 69.2566 64.9917C69.2544 65.0584 69.244 65.1246 69.2256 65.1887Z" fill="#263238"/>
<path d="M60.9284 91.899C61.1588 91.7959 65.3982 93.5157 66.2443 94.6129C66.4438 94.8405 66.5955 95.1068 66.6899 95.3955C66.7844 95.6843 66.8196 95.9894 66.7936 96.2924C66.7936 96.2924 61.3803 93.9501 60.2728 94.1069C59.1653 94.2636 58.4034 95.8983 57.7168 94.8369C57.0301 93.7755 56.9238 93.6635 56.9238 93.6635L60.9284 91.899Z" fill="#FFBEA9"/>
<path d="M50.2967 30.0684C51.8516 30.0684 55.8473 33.1272 56.0555 40.996C56.2726 48.6498 55.7765 62.493 55.7765 62.493L62.0802 91.1556C62.2618 91.4333 55.9537 94.8056 53.1717 94.0846C53.1717 94.0846 45.9156 68.2076 45.291 65.0144C44.6663 61.8212 43.3374 46.9614 43.8557 43.6115C44.374 40.2615 43.5677 30.0818 50.2967 30.0684Z" fill="#6AB058"/>
<path d="M53.9384 90.9811C53.8046 90.8878 53.6406 90.8498 53.4799 90.8746C53.3193 90.8994 53.1741 90.9853 53.0739 91.1147C52.9738 91.2441 52.9263 91.4073 52.9411 91.5709C52.956 91.7345 53.032 91.8863 53.1537 91.9951C53.2754 92.104 53.4337 92.1618 53.5961 92.1567C53.7585 92.1516 53.9129 92.084 54.0278 91.9678C54.1426 91.8515 54.2092 91.6953 54.214 91.5311C54.2188 91.3669 54.1614 91.207 54.0535 91.0841" fill="#E0E0E0"/>
<path d="M54.0445 91.0839C54.0445 91.0839 54.1065 91.0839 54.1641 91.1869C54.2475 91.32 54.2791 91.4796 54.2527 91.6348C54.2387 91.7506 54.1987 91.8617 54.1357 91.9595C54.0728 92.0573 53.9885 92.1392 53.8895 92.1991C53.7576 92.2597 53.6113 92.2803 53.4681 92.2585C53.3249 92.2366 53.1911 92.1733 53.0828 92.0761C52.9745 91.979 52.8964 91.8522 52.8579 91.711C52.8195 91.5699 52.8223 91.4205 52.8662 91.281C52.9092 91.1704 52.978 91.072 53.0667 90.994C53.1554 90.9161 53.2613 90.8609 53.3756 90.8331C53.5228 90.7922 53.6796 90.8049 53.8186 90.869C53.9116 90.9182 53.9426 90.9675 53.9338 90.9765C53.9249 90.9854 53.7256 90.8779 53.4288 90.9765C53.3472 91.0044 53.2727 91.0502 53.2107 91.1106C53.1487 91.1709 53.1006 91.2444 53.0699 91.3258C53.0457 91.424 53.0486 91.5271 53.0782 91.6239C53.1077 91.7206 53.1629 91.8073 53.2377 91.8747C53.3125 91.942 53.4041 91.9874 53.5026 92.0059C53.6011 92.0244 53.7027 92.0153 53.7964 91.9796C53.8714 91.937 53.9368 91.8792 53.9887 91.8099C54.0405 91.7405 54.0776 91.6611 54.0977 91.5766C54.1774 91.281 54.0179 91.1019 54.0445 91.0839Z" fill="#263238"/>
<path d="M53.3226 89.2883C53.2357 89.2488 53.1401 89.2332 53.0453 89.2431C52.9506 89.2531 52.8601 89.2881 52.7831 89.3448C52.706 89.4014 52.6452 89.4777 52.6067 89.5658C52.5682 89.6538 52.5534 89.7507 52.5638 89.8464C52.5742 89.9421 52.6095 90.0334 52.666 90.1109C52.7225 90.1884 52.7983 90.2494 52.8857 90.2878C52.9731 90.3261 53.0689 90.3405 53.1635 90.3293C53.2582 90.3182 53.3482 90.282 53.4245 90.2243C53.4935 90.1635 53.5469 90.0868 53.5802 90.0006C53.6135 89.9144 53.6257 89.8213 53.6157 89.7294C53.6056 89.6374 53.5738 89.5492 53.5227 89.4724C53.4717 89.3956 53.403 89.3324 53.3226 89.2883Z" fill="#E0E0E0"/>
<path d="M53.3222 89.2876C53.3222 89.2876 53.3798 89.2876 53.4595 89.3235C53.5717 89.399 53.6522 89.5139 53.6855 89.6459C53.7146 89.7458 53.7193 89.8514 53.6992 89.9536C53.6792 90.0558 53.6349 90.1515 53.5703 90.2326C53.4774 90.325 53.3592 90.3871 53.2311 90.4109C53.1029 90.4346 52.9706 90.419 52.8513 90.3659C52.7321 90.3128 52.6313 90.2248 52.562 90.1132C52.4927 90.0017 52.4582 89.8716 52.4628 89.74C52.4792 89.6366 52.52 89.5386 52.5817 89.4545C52.6434 89.3703 52.7241 89.3023 52.8172 89.2563C52.9353 89.1926 53.0725 89.175 53.2026 89.207C53.2912 89.2339 53.3266 89.2742 53.3222 89.2876C53.1671 89.2827 53.0138 89.3215 52.8792 89.3996C52.8182 89.4399 52.7667 89.4933 52.7285 89.556C52.6902 89.6187 52.666 89.6892 52.6577 89.7624C52.6565 89.8483 52.6818 89.9326 52.7303 90.0033C52.7787 90.0739 52.8479 90.1275 52.9279 90.1565C53.0001 90.1908 53.0807 90.2028 53.1595 90.1908C53.2384 90.1789 53.3119 90.1435 53.3709 90.0893C53.4196 90.0338 53.4552 89.9679 53.4751 89.8966C53.4951 89.8253 53.4988 89.7503 53.4861 89.6773C53.4905 89.4041 53.3045 89.319 53.3222 89.2876Z" fill="#263238"/>
<path d="M52.884 87.5637C52.7969 87.5255 52.7015 87.5112 52.6073 87.5221C52.5131 87.533 52.4234 87.5688 52.3471 87.6259C52.2709 87.683 52.2109 87.7593 52.1731 87.8473C52.1354 87.9353 52.1211 88.0317 52.1319 88.127C52.1427 88.2222 52.1781 88.313 52.2345 88.39C52.2909 88.4671 52.3664 88.5278 52.4534 88.566C52.5404 88.6043 52.6358 88.6187 52.73 88.6078C52.8243 88.597 52.914 88.5612 52.9903 88.5042C53.0591 88.4426 53.1122 88.3652 53.1451 88.2785C53.178 88.1917 53.1897 88.0983 53.1793 88.006C53.1689 87.9137 53.1366 87.8253 53.0852 87.7483C53.0338 87.6713 52.9647 87.608 52.884 87.5637Z" fill="#E0E0E0"/>
<path d="M52.8837 87.5641C52.8837 87.5641 52.9457 87.5641 53.0255 87.6C53.1366 87.6757 53.2156 87.7907 53.2469 87.9224C53.277 88.0227 53.2827 88.1288 53.2634 88.2318C53.2441 88.3347 53.2005 88.4314 53.1362 88.5136C53.0433 88.606 52.9251 88.6681 52.797 88.6918C52.6688 88.7156 52.5365 88.6999 52.4173 88.6469C52.298 88.5938 52.1972 88.5058 52.1279 88.3942C52.0587 88.2826 52.0241 88.1526 52.0287 88.0209C52.0443 87.9178 52.0843 87.82 52.1452 87.7359C52.2061 87.6517 52.2862 87.5835 52.3787 87.5373C52.4969 87.4739 52.634 87.4564 52.7641 87.488C52.8571 87.5149 52.8926 87.5552 52.8837 87.5641C52.8748 87.5731 52.6844 87.5238 52.4629 87.6806C52.4016 87.7211 52.3498 87.7745 52.3108 87.8371C52.2718 87.8997 52.2466 87.97 52.2369 88.0433C52.2372 88.1284 52.2633 88.2114 52.3116 88.281C52.3599 88.3507 52.4281 88.4037 52.5072 88.433C52.582 88.474 52.6677 88.49 52.752 88.4787C52.8364 88.4674 52.915 88.4295 52.9767 88.3703C53.0238 88.3139 53.0581 88.2478 53.0772 88.1766C53.0963 88.1055 53.0998 88.0309 53.0875 87.9582C53.052 87.6851 52.866 87.5955 52.8837 87.5641Z" fill="#263238"/>
<path d="M43.9442 42.8676C43.9442 42.8676 43.9442 42.9572 43.9442 43.1363C43.9442 43.3155 43.9442 43.5842 43.9442 43.9156C43.9442 44.6053 43.9707 45.6219 44.0328 46.9296C44.1524 49.5496 44.4049 53.3429 44.777 58.0409C44.8685 59.2143 44.9689 60.4444 45.0782 61.7312C45.1314 62.3716 45.189 63.0255 45.2421 63.6928C45.2421 63.863 45.2731 64.0287 45.2864 64.1989L45.3086 64.4497L45.3617 64.696C45.4282 65.0184 45.5168 65.3543 45.6009 65.6902C46.2787 68.3773 47.0628 71.2526 47.8823 74.2801C49.5435 80.3306 51.3731 87.0036 53.3045 94.0438L53.2026 93.9587C54.3209 94.0471 55.4458 93.9426 56.5294 93.6497C58.4988 93.1136 60.3606 92.2346 62.0313 91.0522L61.987 91.1686C59.6348 80.4425 57.4951 70.6883 55.7852 62.9046V62.8822C56.0466 56.5719 56.2636 51.4261 56.4098 47.8522C56.494 46.0608 56.556 44.6859 56.5959 43.7364C56.6225 43.2886 56.6402 42.9124 56.6535 42.6616C56.6668 42.4108 56.6801 42.2988 56.6801 42.2988C56.6801 42.2988 56.6801 42.4197 56.6801 42.6661C56.6801 42.9124 56.6801 43.2707 56.649 43.7364C56.618 44.6904 56.5737 46.0787 56.5117 47.8567C56.3833 51.4395 56.1928 56.5764 55.9624 62.8911V62.8687C57.6812 70.648 59.8386 80.3977 62.213 91.1194V91.1955L62.1509 91.2358C60.4576 92.4388 58.5683 93.3316 56.5693 93.8737C55.4603 94.1769 54.3079 94.2845 53.1627 94.1916H53.0874V94.1155C51.1604 87.0708 49.3398 80.3977 47.6874 74.3428C46.8723 71.3153 46.0971 68.4445 45.4237 65.7484C45.3396 65.4081 45.2554 65.0767 45.1845 64.7318L45.1314 64.4765V64.2213L45.0915 63.7197C45.0383 63.0524 44.9808 62.3761 44.932 61.7536C44.8301 60.4683 44.7371 59.2367 44.6441 58.0633C44.2941 53.3608 44.0682 49.5541 43.9752 46.9431C43.922 45.6309 43.9176 44.6142 43.9265 43.9245C43.9265 43.5797 43.953 43.3199 43.9575 43.1408C43.9619 42.9617 43.9442 42.8676 43.9442 42.8676Z" fill="#263238"/>
<path d="M126.429 187.829C129.262 187.829 131.558 185.507 131.558 182.643C131.558 179.779 129.262 177.457 126.429 177.457C123.596 177.457 121.299 179.779 121.299 182.643C121.299 185.507 123.596 187.829 126.429 187.829Z" fill="#263238"/>
<path d="M126.429 185.469C127.972 185.469 129.224 184.204 129.224 182.643C129.224 181.083 127.972 179.817 126.429 179.817C124.885 179.817 123.633 181.083 123.633 182.643C123.633 184.204 124.885 185.469 126.429 185.469Z" fill="#E0E0E0"/>
<path d="M135.292 174.215V177.677L127.319 184.162C126.955 184.427 126.537 184.607 126.096 184.69C125.502 184.757 124.949 184.417 124.949 183.53C124.949 181.842 127.026 176.929 127.026 176.929H128.692V174.215H135.292Z" fill="#455A64"/>
<path d="M125.981 183.091C125.959 183.091 125.879 182.89 126.11 182.67C126.177 182.61 126.26 182.568 126.348 182.55C126.437 182.532 126.529 182.538 126.615 182.567C126.724 182.605 126.818 182.675 126.885 182.77C126.952 182.864 126.988 182.977 126.988 183.094C126.988 183.21 126.952 183.323 126.885 183.418C126.818 183.512 126.724 183.583 126.615 183.62C126.529 183.649 126.437 183.655 126.348 183.637C126.26 183.619 126.177 183.577 126.11 183.517C125.879 183.297 125.959 183.069 125.981 183.091C126.003 183.114 126.025 183.271 126.207 183.387C126.257 183.419 126.313 183.438 126.372 183.444C126.43 183.449 126.489 183.44 126.544 183.418C126.608 183.393 126.663 183.348 126.702 183.29C126.741 183.232 126.762 183.164 126.762 183.094C126.762 183.024 126.741 182.955 126.702 182.897C126.663 182.84 126.608 182.795 126.544 182.769C126.489 182.747 126.43 182.738 126.372 182.744C126.313 182.749 126.257 182.769 126.207 182.8C126.025 182.917 126.017 183.1 125.981 183.091Z" fill="#263238"/>
<path d="M127.04 176.925C127.439 176.856 127.844 176.83 128.249 176.849C128.998 176.849 130.021 176.849 131.168 176.871L134.083 176.965C134.488 176.96 134.893 176.99 135.292 177.055C134.893 177.121 134.488 177.146 134.083 177.131C133.334 177.131 132.311 177.131 131.164 177.104L128.249 177.014C127.844 177.019 127.439 176.989 127.04 176.925Z" fill="#263238"/>
<path d="M64.2108 187.879C67.044 187.879 69.3406 185.557 69.3406 182.693C69.3406 179.829 67.044 177.507 64.2108 177.507C61.3777 177.507 59.0811 179.829 59.0811 182.693C59.0811 185.557 61.3777 187.879 64.2108 187.879Z" fill="#263238"/>
<path d="M64.2108 185.519C65.7545 185.519 67.006 184.254 67.006 182.693C67.006 181.132 65.7545 179.867 64.2108 179.867C62.667 179.867 61.4155 181.132 61.4155 182.693C61.4155 184.254 62.667 185.519 64.2108 185.519Z" fill="#E0E0E0"/>
<path d="M73.0928 173.274V177.726L65.119 184.207C64.7552 184.473 64.3377 184.655 63.8964 184.739C63.3028 184.807 62.749 184.466 62.749 183.58C62.749 181.891 64.8266 176.974 64.8266 176.974H66.4923V173.274H73.0928Z" fill="#455A64"/>
<path d="M63.7632 183.146C63.7411 183.146 63.6613 182.944 63.8873 182.72C63.957 182.661 64.0403 182.622 64.1294 182.604C64.2185 182.587 64.3105 182.593 64.3967 182.622C64.5054 182.659 64.6001 182.729 64.6675 182.823C64.735 182.917 64.7719 183.03 64.7732 183.146C64.7716 183.262 64.7345 183.375 64.6672 183.47C64.5999 183.564 64.5054 183.636 64.3967 183.674C64.3103 183.703 64.2178 183.709 64.1284 183.691C64.0391 183.673 63.9559 183.632 63.8873 183.571C63.6613 183.352 63.7411 183.123 63.7632 183.146C63.7854 183.168 63.8031 183.32 63.9892 183.441C64.0391 183.472 64.0955 183.491 64.1539 183.497C64.2123 183.502 64.2711 183.494 64.3258 183.472C64.3893 183.445 64.4435 183.399 64.4821 183.341C64.5206 183.283 64.5417 183.215 64.5429 183.146C64.5419 183.076 64.5209 183.009 64.4823 182.951C64.4437 182.894 64.3893 182.849 64.3258 182.823C64.2713 182.801 64.2123 182.792 64.1537 182.797C64.0951 182.803 64.0387 182.822 63.9892 182.854C63.7898 182.971 63.7898 183.172 63.7632 183.146Z" fill="#263238"/>
<path d="M64.8223 176.974C65.2218 176.908 65.6271 176.884 66.0316 176.902C66.7803 176.902 67.8036 176.902 68.9509 176.925L71.8658 177.019C72.2693 177.011 72.6727 177.041 73.0707 177.109C72.6711 177.175 72.266 177.2 71.8613 177.185C71.1171 177.185 70.0894 177.185 68.9465 177.158L66.0316 177.064C65.6266 177.075 65.2214 177.045 64.8223 176.974Z" fill="#263238"/>
<path d="M88.6241 150.031C87.8755 150.031 87.1459 149.794 86.5369 149.354C85.9278 148.914 85.4697 148.293 85.2263 147.577L70.2578 103.168L149.681 116.156L147.856 143.26C147.803 144.074 147.459 144.84 146.889 145.417C146.318 145.994 145.56 146.341 144.755 146.395L88.85 150.027L88.6241 150.031ZM71.5691 104.314L86.068 147.286C86.2601 147.853 86.6311 148.341 87.1241 148.675C87.6172 149.008 88.2048 149.168 88.7968 149.131L144.702 145.499C145.289 145.459 145.842 145.206 146.259 144.787C146.676 144.367 146.928 143.808 146.97 143.215L148.742 116.926L71.5691 104.314Z" fill="#455A64"/>
<path d="M73.8593 113.621L70.5369 111.059L67.2588 101.412L64.3794 99.724L64.8268 98.9492L67.9853 100.803L71.29 110.513L74.3953 112.909L73.8593 113.621Z" fill="#455A64"/>
<path d="M73.7439 111.51L73.6235 112.397L148.755 122.816L148.875 121.928L73.7439 111.51Z" fill="#455A64"/>
<path d="M78.1188 124.594L78.0664 125.488L148.617 129.713L148.669 128.819L78.1188 124.594Z" fill="#455A64"/>
<path d="M147.784 135.848L82.4707 137.589L82.494 138.484L147.808 136.744L147.784 135.848Z" fill="#455A64"/>
<path d="M147.401 142.613L85.3271 145.649L85.37 146.544L147.444 143.508L147.401 142.613Z" fill="#455A64"/>
<path d="M141.928 145.552L141.042 145.476C141.875 135.48 142.429 125.323 142.695 115.291L143.581 115.313C143.315 125.399 142.757 135.552 141.928 145.552Z" fill="#455A64"/>
<path d="M136.83 146.09H135.944C135.944 145.879 136.094 124.848 136.36 114.879L137.246 114.901C136.98 124.857 136.834 145.879 136.83 146.09Z" fill="#455A64"/>
<path d="M130.783 113.229L129.897 113.253L130.756 146.195L131.642 146.171L130.783 113.229Z" fill="#455A64"/>
<path d="M123.415 113.017L122.529 113.08L124.93 147.753L125.816 147.69L123.415 113.017Z" fill="#455A64"/>
<path d="M114.568 110.58L113.69 110.699L118.57 147.429L119.448 147.31L114.568 110.58Z" fill="#455A64"/>
<path d="M104.856 108.752L103.985 108.916L111.205 147.996L112.076 147.832L104.856 108.752Z" fill="#455A64"/>
<path d="M93.3725 107.226L92.5137 107.446L102.802 148.493L103.661 148.273L93.3725 107.226Z" fill="#455A64"/>
<path d="M78.9915 104.845L78.1489 105.122L92.989 151.269L93.8316 150.992L78.9915 104.845Z" fill="#455A64"/>
<path d="M138.004 175.017L65.5618 173.821C65.4158 173.819 65.2717 173.787 65.1379 173.728C65.0041 173.669 64.8832 173.584 64.7822 173.477C64.6812 173.37 64.6022 173.245 64.5498 173.107C64.4973 172.969 64.4724 172.822 64.4765 172.675C64.5075 171.358 64.6936 164.739 65.1986 163.27C65.3802 162.75 65.677 161.881 77.7085 155.92C78.9002 155.329 89.4167 150.134 90.8653 150.053C92.3138 149.973 105.727 149.395 106.295 149.368C106.44 149.362 106.585 149.384 106.722 149.435C106.859 149.485 106.985 149.562 107.092 149.661C107.199 149.761 107.286 149.881 107.348 150.014C107.409 150.147 107.444 150.292 107.451 150.439C107.457 150.586 107.435 150.733 107.385 150.871C107.335 151.009 107.259 151.136 107.161 151.245C107.062 151.353 106.944 151.441 106.812 151.503C106.68 151.566 106.537 151.601 106.392 151.608C106.25 151.608 92.7125 152.194 91.0292 152.288C89.1288 152.696 69.3228 162.316 67.2452 164.165C67.0281 165.119 66.8243 168.411 66.7225 171.591L138.043 172.769C138.337 172.769 138.619 172.887 138.827 173.097C139.034 173.307 139.151 173.591 139.151 173.888C139.151 174.185 139.034 174.47 138.827 174.68C138.619 174.89 138.337 175.008 138.043 175.008L138.004 175.017Z" fill="#455A64"/>
<path d="M106.06 173.149L96.8591 172.92C95.1226 172.835 93.8246 172.311 92.9874 171.371C92.1502 170.43 91.8401 169.252 91.9287 167.721C92.0255 166.293 92.4831 164.915 93.2576 163.717L102.157 150.411L102.893 150.913L93.9974 164.21C93.303 165.273 92.8897 166.499 92.7969 167.77C92.7216 169.055 93.0051 170.067 93.6297 170.775C94.2543 171.483 95.4017 171.953 96.8768 172.025L106.064 172.253L106.06 173.149Z" fill="#455A64"/>
<path d="M103.508 150.833C96.0925 137.33 76.6365 102.044 75.6619 100.919C75.0727 100.386 70.3461 98.6802 67.4844 97.7621L67.759 96.9111C68.5298 97.1664 75.3252 99.4102 76.2732 100.27C77.2212 101.13 99.7516 142.171 104.279 150.398L103.508 150.833Z" fill="#455A64"/>
<path d="M69.5489 97.6052L64.676 100.601C64.676 100.601 59.0412 98.0217 58.5717 97.4126C58.1021 96.8035 57.9648 94.5329 59.9006 94.1075C61.8365 93.682 69.5489 97.6052 69.5489 97.6052Z" fill="#455A64"/>
<path d="M60.1442 96.118C60.1442 96.118 60.1087 96.0329 60.1442 95.8806C60.1805 95.6567 60.2972 95.4542 60.472 95.3118C60.6041 95.2022 60.7621 95.1288 60.9305 95.099C61.0989 95.0692 61.2721 95.0839 61.4333 95.1417C61.6334 95.2126 61.8068 95.3446 61.9295 95.5195C62.0522 95.6944 62.1181 95.9036 62.1181 96.118C62.1181 96.3324 62.0522 96.5415 61.9295 96.7164C61.8068 96.8913 61.6334 97.0234 61.4333 97.0943C61.2721 97.1521 61.0989 97.1668 60.9305 97.1369C60.7621 97.1071 60.6041 97.0338 60.472 96.9241C60.2972 96.7817 60.1805 96.5792 60.1442 96.3553C60.122 96.2031 60.1442 96.118 60.1442 96.118C60.1442 96.118 60.1707 96.2031 60.215 96.3374C60.2826 96.5175 60.4013 96.6733 60.5561 96.7853C60.6692 96.8664 60.8005 96.9179 60.9381 96.9351C61.0757 96.9523 61.2154 96.9347 61.3447 96.8838C61.5007 96.8246 61.6351 96.7188 61.7301 96.5803C61.8251 96.4419 61.8761 96.2775 61.8762 96.109C61.8742 95.941 61.8225 95.7774 61.7278 95.6393C61.6331 95.5013 61.4996 95.395 61.3447 95.3342C61.2152 95.2845 61.0757 95.2675 60.9383 95.2847C60.8009 95.3019 60.6697 95.3527 60.5561 95.4328C60.4007 95.5442 60.2819 95.7002 60.215 95.8806C60.1707 96.0374 60.1619 96.118 60.1442 96.118Z" fill="#263238"/>
<path d="M65.562 173.624C65.562 173.562 81.7488 173.772 101.714 174.095C121.68 174.417 137.866 174.731 137.866 174.798C137.866 174.865 121.68 174.65 101.71 174.327C81.7399 174.005 65.562 173.692 65.562 173.624Z" fill="#263238"/>
<path d="M177 187.883C177 187.946 137.512 187.999 88.8144 187.999C40.1168 187.999 0.624512 187.946 0.624512 187.883C0.624512 187.82 40.1035 187.767 88.8144 187.767C137.525 187.767 177 187.816 177 187.883Z" fill="#263238"/>
</g>
<defs>
<clipPath id="clip0_2668_6914">
<rect width="177" height="188" fill="white"/>
</clipPath>
</defs>
</svg>
