<svg width="141" height="173" viewBox="0 0 141 173" fill="none" xmlns="http://www.w3.org/2000/svg">
<rect x="7.86865" y="5.94238" width="132.984" height="166.387" fill="#D9D9D9"/>
<g clip-path="url(#clip0_2717_6837)">
<path d="M133.18 0H0.196777V166.387H133.18V0Z" fill="#E8E8E8"/>
<path d="M57.9384 50.6858H10.9038V10.5654H57.9384V50.6858ZM15.3027 46.739H53.5431V14.5134H15.3027V46.739Z" fill="white"/>
<path d="M37.0988 29.5643L63.0832 6.25098L70.2413 12.6736L44.2569 35.988L37.0988 42.4106L29.9406 35.988L20.0244 27.0907L27.1826 20.667L37.0988 29.5643Z" fill="#6AB058"/>
<path d="M120.892 19.3057H70.3571C70.2931 19.3057 70.2412 19.3522 70.2412 19.4097V25.5975C70.2412 25.6549 70.2931 25.7015 70.3571 25.7015H120.892C120.956 25.7015 121.008 25.6549 121.008 25.5975V19.4097C121.008 19.3522 120.956 19.3057 120.892 19.3057Z" fill="white"/>
<path d="M120.892 30.625H70.3571C70.2931 30.625 70.2412 30.6716 70.2412 30.729V36.9168C70.2412 36.9742 70.2931 37.0208 70.3571 37.0208H120.892C120.956 37.0208 121.008 36.9742 121.008 36.9168V30.729C121.008 30.6716 120.956 30.625 120.892 30.625Z" fill="white"/>
<path d="M98.7375 41.9453H70.3284C70.2803 41.9453 70.2412 41.9804 70.2412 42.0236V48.2628C70.2412 48.3061 70.2803 48.3411 70.3284 48.3411H98.7375C98.7857 48.3411 98.8248 48.3061 98.8248 48.2628V42.0236C98.8248 41.9804 98.7857 41.9453 98.7375 41.9453Z" fill="white"/>
<path d="M57.9384 102.956H10.9038V62.832H57.9384V102.956ZM15.3027 99.0088H53.5431V66.7832H15.3027V99.0088Z" fill="white"/>
<path d="M120.892 71.5771H70.3571C70.2931 71.5771 70.2412 71.6237 70.2412 71.6812V77.8689C70.2412 77.9264 70.2931 77.973 70.3571 77.973H120.892C120.956 77.973 121.008 77.9264 121.008 77.8689V71.6812C121.008 71.6237 120.956 71.5771 120.892 71.5771Z" fill="white"/>
<path d="M120.892 82.8955H70.3571C70.2931 82.8955 70.2412 82.9421 70.2412 82.9995V89.1873C70.2412 89.2447 70.2931 89.2913 70.3571 89.2913H120.892C120.956 89.2913 121.008 89.2447 121.008 89.1873V82.9995C121.008 82.9421 120.956 82.8955 120.892 82.8955Z" fill="white"/>
<path d="M98.7375 94.2148H70.3284C70.2803 94.2148 70.2412 94.2499 70.2412 94.2931V100.532C70.2412 100.576 70.2803 100.611 70.3284 100.611H98.7375C98.7857 100.611 98.8248 100.576 98.8248 100.532V94.2931C98.8248 94.2499 98.7857 94.2148 98.7375 94.2148Z" fill="white"/>
<path d="M57.9389 155.227H10.9043V115.106H57.9389V155.227ZM15.3031 151.279H53.5436V119.053H15.3031V151.279Z" fill="white"/>
<path d="M120.892 123.847H70.3571C70.2931 123.847 70.2412 123.893 70.2412 123.951V130.138C70.2412 130.196 70.2931 130.242 70.3571 130.242H120.892C120.956 130.242 121.008 130.196 121.008 130.138V123.951C121.008 123.893 120.956 123.847 120.892 123.847Z" fill="white"/>
<path d="M120.892 135.166H70.3571C70.2931 135.166 70.2412 135.213 70.2412 135.27V141.458C70.2412 141.515 70.2931 141.562 70.3571 141.562H120.892C120.956 141.562 121.008 141.515 121.008 141.458V135.27C121.008 135.213 120.956 135.166 120.892 135.166Z" fill="white"/>
<path d="M98.7375 146.486H70.3284C70.2803 146.486 70.2412 146.521 70.2412 146.565V152.804C70.2412 152.847 70.2803 152.882 70.3284 152.882H98.7375C98.7857 152.882 98.8248 152.847 98.8248 152.804V146.565C98.8248 146.521 98.7857 146.486 98.7375 146.486Z" fill="white"/>
</g>
<defs>
<clipPath id="clip0_2717_6837">
<rect width="132.984" height="166.387" fill="white" transform="translate(0.196777)"/>
</clipPath>
</defs>
</svg>
