<svg width="48" height="48" viewBox="0 0 48 48" fill="none" xmlns="http://www.w3.org/2000/svg">
<g clip-path="url(#clip0_531_3551)">
<path fill-rule="evenodd" clip-rule="evenodd" d="M16.6814 29.6793C17.6987 29.0576 17.1335 25.7798 17.6987 22.954C18.2073 20.5239 19.1115 18.7154 21.9937 19.8457C23.5196 20.4108 26.0063 22.5584 27.5321 20.4674C29.3406 17.9242 22.1068 13.7986 20.1288 13.0074C17.3031 11.8771 16.1728 13.0074 15.4946 15.6636C14.5339 19.5066 15.3251 24.4799 16.0032 28.3229C16.1728 29.2272 16.1163 29.3967 16.6814 29.6793Z" fill="#6AB058"/>
<path fill-rule="evenodd" clip-rule="evenodd" d="M27.2496 22.3242C25.7802 23.8501 23.9717 24.8674 22.1068 26.1107C20.3548 27.2975 18.4899 28.5408 17.4161 30.2363C16.1728 32.1013 16.0032 35.8878 17.6987 37.3006C18.3203 33.9097 18.7724 33.3446 20.92 31.6491C22.4458 30.5188 24.7064 29.332 26.5714 28.2582C43.1301 20.1766 22.2198 5.93486 21.9937 5.99138C21.7677 6.04789 17.9247 10.6821 18.0943 11.3038C20.1853 12.5471 32.3358 17.2378 27.2496 22.3242Z" fill="#6AB058"/>
<path fill-rule="evenodd" clip-rule="evenodd" d="M20.4679 42.0001C20.7504 41.4349 21.2025 41.1524 22.0503 40.8133C21.5416 40.4177 21.3156 40.1916 21.2591 39.57C22.5024 38.3266 24.876 38.044 24.7064 35.3313C22.9545 35.0488 20.92 37.5354 20.6939 37.705C20.6939 32.2795 26.4019 35.6704 30.8665 29.1147C31.5447 28.0974 32.4489 26.1194 32.6184 24.4805C30.6404 26.4585 29.7927 27.0802 27.8712 28.267C22.2198 31.3753 14.5339 34.201 20.4679 42.0001Z" fill="#6AB058"/>
</g>
<defs>
<clipPath id="clip0_531_3551">
<rect x="6" y="6" width="36" height="36" rx="18" fill="white"/>
</clipPath>
</defs>
</svg>
